<svg id="color" xmlns="http://www.w3.org/2000/svg" xmlns:xlink="http://www.w3.org/1999/xlink" viewBox="0 0 146 100"><defs><style>.cls-1{fill:none;}.cls-2{clip-path:url(#clip-path);}.cls-3,.cls-4{fill:#bf2126;}.cls-4{font-size:4.92px;font-family:ArialMT, Arial;}</style><clipPath id="clip-path"><rect class="cls-1" y="23.28" width="145.9" height="40.85"/></clipPath></defs><title>color_sunbeam</title><g class="cls-2"><path class="cls-3" d="M139.69,38.94c-.15.25-.37.08-.55,0l-.08,0a99,99,0,0,0-29.13-10.2,134.82,134.82,0,0,0-14.16-2c-4.59-.3-9-.74-14.73-.61-11.09.24-19.16,1.1-26.76,2.77a94.24,94.24,0,0,0-11.17,3,107.42,107.42,0,0,0-15.88,7.28.44.44,0,0,1-.32-.25c-.54-.9-1.09-1.8-1.62-2.71-.14-.24,0-.35.22-.45.49-.26,1-.49,1.46-.77a4.33,4.33,0,0,0,1.87-2.22,2.84,2.84,0,0,0-.16-2.11,4.19,4.19,0,0,0-2.89-2.53,7.52,7.52,0,0,0-3.53,0,6.6,6.6,0,0,0-3.55,2.06,5.3,5.3,0,0,0-1.4,3.36,7.36,7.36,0,0,0,.58,3.41,26.09,26.09,0,0,0,3,4.91c.67.95,1.37,1.88,2,2.88a14.58,14.58,0,0,1,2.07,5.74,12.68,12.68,0,0,1-.58,6,9.65,9.65,0,0,1-1.92,3.11,15.43,15.43,0,0,1-4.11,3.12c-.22.12-.46.2-.7.3A13.17,13.17,0,0,1,14,64a14.31,14.31,0,0,1-5-.12,13.37,13.37,0,0,1-5.29-2.26A10.3,10.3,0,0,1,1,58.68,6.92,6.92,0,0,1,.09,56a8.52,8.52,0,0,1,.19-3.45,7.42,7.42,0,0,1,4.54-5.24,11.49,11.49,0,0,1,5.09-.76,1.06,1.06,0,0,1,.32.15c-.07.09-.13.22-.22.27-.37.21-.77.36-1.14.58a10,10,0,0,0-3,2.42,7.63,7.63,0,0,0-1.47,3.58,9.14,9.14,0,0,0,.13,3.78,6.5,6.5,0,0,0,1.85,3.18,6.77,6.77,0,0,0,2.76,1.57,9.57,9.57,0,0,0,1.89.34,10.18,10.18,0,0,0,5-.79,6.52,6.52,0,0,0,2.65-1.94,6,6,0,0,0,.81-1.57A10.47,10.47,0,0,0,20,56.38a8.75,8.75,0,0,0,0-2.94,11.57,11.57,0,0,0-1.82-4.6c-.87-1.39-1.82-2.74-2.67-4.13a16.53,16.53,0,0,1-1.85-3.52,11.41,11.41,0,0,1-.46-5.58A10.81,10.81,0,0,1,16,29.91a11.11,11.11,0,0,1,5.45-3.16,13.79,13.79,0,0,1,5-.34,9.47,9.47,0,0,1,3.87,1.19A5.34,5.34,0,0,1,33,31.22,5.09,5.09,0,0,1,32.45,35a.28.28,0,0,0,0,.09.72.72,0,0,0,0,.14L32.9,35c16.75-8.67,30.71-11.68,49.82-11.72a111.59,111.59,0,0,1,52.69,12.88c1.35.69,2.63,1.51,3.94,2.29.18.11.51.23.35.5"/></g><path class="cls-3" d="M77.88,46.91c-.29.91-.54,1.85-.92,2.72a25.07,25.07,0,0,1-2.88,5.26,8.9,8.9,0,0,1-1.65,1.7,2.54,2.54,0,0,1-1.85.77c-1.15.08-1.33-.56-1.4-1.35a5.83,5.83,0,0,1,.19-1.75c.16-.71.4-1.4.63-2.1.14-.42.31-.83.48-1.24a19.63,19.63,0,0,1,2.86-5,7,7,0,0,1,2.75-2.35,3,3,0,0,1,1-.2c.58,0,.94.43,1,1.1a6.38,6.38,0,0,1-.24,2.47M82,43.32a3.24,3.24,0,0,0-1.3-1.65,4,4,0,0,0-3.09-.22,8.34,8.34,0,0,0-4,2.39,2.43,2.43,0,0,1-.29.21c.07-.2.68-1.62.92-2.24.36-.91.7-1.84,1.06-2.76.67-1.66,1.35-3.31,2-5,.19-.46.4-.92.6-1.38s.09-.68-.38-.67c-1.07,0-2.15,0-3.22.05a.58.58,0,0,0-.61.41c-.21.55-.42,1.11-.65,1.66-.78,1.92-1.57,3.84-2.33,5.76-.31.77-3,7.25-3.1,7.45-.56,1.07-1.06,2.19-1.71,3.21a30.25,30.25,0,0,1-3.51,4.51A6.34,6.34,0,0,1,60.7,56.4a1.12,1.12,0,0,1-1.06,0c-.45-.22-.53-.6-.44-1.28a11.87,11.87,0,0,1,1.27-3.47c.83-1.79,1.74-3.54,2.57-5.32a5.12,5.12,0,0,0,.52-2.46,2.78,2.78,0,0,0-.63-1.77,2.72,2.72,0,0,0-2.17-.81,5.94,5.94,0,0,0-3.15.88c-.24.15-1.61,1.11-2,1.46s-.76.73-1.15,1.1c-.12.11-.26.21-.39.31s-.2-.16,0-.53c.32-.78.67-1.56,1-2.34.24-.57.2-.63-.44-.63l-2.81,0c-.68,0-.85.15-1.1.79-.52,1.34-1.05,2.68-1.59,4-.31.77-.64,1.53-1,2.3-.12.29-.25.58-.36.88-.18.46-.35.92-.54,1.37-.4,1-.82,2-1.22,3-.53,1.29-1,2.59-1.58,3.88-.19.46-.08.65.41.65,1,0,2-.05,3,0a.75.75,0,0,0,.84-.56c.64-1.63,1.34-3.24,1.95-4.88A20.5,20.5,0,0,1,55,45.57a10.41,10.41,0,0,1,2.92-2.29c.48-.23,1.12-.36,1.31,0a1.86,1.86,0,0,1,.16,1.05,10.58,10.58,0,0,1-1.09,2.76c-.78,1.54-1.39,2.66-2.12,4.22a16.78,16.78,0,0,0-1,2.64,5.18,5.18,0,0,0-.06,2.58,2.73,2.73,0,0,0,1.65,1.9,3.78,3.78,0,0,0,3.27-.26,12.94,12.94,0,0,0,3.64-3c.51-.56,1.64-2,1.82-2.16,0,.26,0,.41,0,.57a7.29,7.29,0,0,0,.56,2.78,3.57,3.57,0,0,0,1.59,1.8,6,6,0,0,0,4.26.29,11.79,11.79,0,0,0,6.1-3.77,21.49,21.49,0,0,0,2.33-3.15,15.65,15.65,0,0,0,1.67-4.22,7,7,0,0,0-.11-4"/><g class="cls-2"><path class="cls-3" d="M110.74,47.33a32.59,32.59,0,0,1-1.58,3.88,19.37,19.37,0,0,1-1.72,2.56,14.74,14.74,0,0,1-1.32,1.45,4.56,4.56,0,0,1-2.32,1.3,1,1,0,0,1-1.27-.73,4.37,4.37,0,0,1-.13-1.21,10.13,10.13,0,0,1,.6-2.8,25.63,25.63,0,0,1,1.11-2.8,18.06,18.06,0,0,1,2.21-3.8,15,15,0,0,1,1.69-2,3.83,3.83,0,0,1,2.24-.84c.57,0,1.13.7,1.18,1.33a8.4,8.4,0,0,1-.71,3.61m2.11,5.56q1-2.56,2-5.1c.78-1.94,1.57-3.88,2.36-5.82.15-.36.07-.49-.33-.49l-3.36,0a.56.56,0,0,0-.55.39c-.13.3-.26.67-.42,1a3,3,0,0,1-.24-.37,2.3,2.3,0,0,0-1.81-1.18,6.3,6.3,0,0,0-2.86.33A13.59,13.59,0,0,0,102.77,45a23.55,23.55,0,0,0-2.67,3.42c-.27.49-.48.81-.69,1.18-.43.51-2.33,2.51-3.29,3.36A21.84,21.84,0,0,1,92.5,55.6a11.6,11.6,0,0,1-2.82,1.2,3.7,3.7,0,0,1-2.21,0A2.1,2.1,0,0,1,86.14,55a10.08,10.08,0,0,1,.61-4.19,28.44,28.44,0,0,1,1.42-2.93,17.2,17.2,0,0,1,3-3.83A10.66,10.66,0,0,1,93,42.64a2.64,2.64,0,0,1,1.87-.41,1,1,0,0,1,.75.94A4.38,4.38,0,0,1,95,46a9.71,9.71,0,0,1-2.41,2.43,17.27,17.27,0,0,1-5.07,2.24c-.14,0-.32.06-.36.34s.31.2.44.2h.14a16.81,16.81,0,0,0,5.8-1.11A15.72,15.72,0,0,0,97,48.35a6.36,6.36,0,0,0,1.24-1.17,3.9,3.9,0,0,0,.79-2.29,3.09,3.09,0,0,0-.51-2,4.35,4.35,0,0,0-2.4-1.54,6.81,6.81,0,0,0-2.44-.19,7.24,7.24,0,0,0-2,.39,13.21,13.21,0,0,0-5.78,3.56,16.7,16.7,0,0,0-2.62,3.56A13.7,13.7,0,0,0,82,52.26a6.33,6.33,0,0,0,.33,3.68,4.18,4.18,0,0,0,2.94,2.53,7.8,7.8,0,0,0,4.69-.33,18.79,18.79,0,0,0,5.29-3.07c.93-.71,3.08-2.72,3.37-2.95a13.91,13.91,0,0,0-.18,2.75,4.46,4.46,0,0,0,.81,2.45,3.18,3.18,0,0,0,1.71,1.19,4.25,4.25,0,0,0,1.63.11,4.6,4.6,0,0,0,1.75-.58,13.94,13.94,0,0,0,3.8-3.4,10.29,10.29,0,0,0-.07,1.69,2.39,2.39,0,0,0,2.3,2.35,4.31,4.31,0,0,0,2.81-.87,11.75,11.75,0,0,0,3.19-3.4c.09-.14.14-.42.06-.52s-.38-.06-.54.09c-.69.63-1.51,1.46-2.06,1.88a4.74,4.74,0,0,1-1.16.72c-.33.13-.76,0-.77-.36a2.88,2.88,0,0,1,.15-.93c.23-.81.53-1.61.83-2.39"/><path class="cls-3" d="M127.85,45.35c.28-.3.54-.61.83-.89a10.65,10.65,0,0,1,4.42-2.85,3.87,3.87,0,0,1,2.46,0,1.75,1.75,0,0,1,1.2,1.7,11.15,11.15,0,0,1,0,2.14,15.32,15.32,0,0,1,3.06-2.82,5.68,5.68,0,0,1,3.7-1.22,2.31,2.31,0,0,1,2.17,1.43,3.64,3.64,0,0,1-.07,2.74c-.36,1-.68,2-1.07,2.95q-1.41,3.63-2.85,7.26c-.3.76-.62,1.51-1,2.24a.66.66,0,0,1-.49.27c-1.07,0-2.15,0-3.22,0-.4,0-.53-.2-.38-.57Q138.32,53.39,140,49c.52-1.3.95-2.53,1.43-3.84a3.39,3.39,0,0,0,.17-.92c0-.41-.19-.6-.57-.59a2.88,2.88,0,0,0-1.7.74,17.53,17.53,0,0,0-4.69,6.22c-.81,1.78-1.46,3.63-2.19,5.44-.25.64-.52,1.27-.78,1.9a.43.43,0,0,1-.45.3c-1.11,0-2.21,0-3.32,0-.46,0-.53-.13-.37-.55.39-1,.79-2,1.18-3,1-2.42,2.5-6.4,2.85-7.26s.59-1.5.76-2a4.07,4.07,0,0,0,.28-1.38c0-.33-.22-.49-.58-.49a3.3,3.3,0,0,0-1.59.66,16.68,16.68,0,0,0-3.76,4.32,17.83,17.83,0,0,0-1.34,2.63c-.8,1.86-1.54,3.75-2.3,5.63a10.17,10.17,0,0,1-.45,1.11.69.69,0,0,1-.49.29c-.56,0-1.13,0-1.69,0h-1.52c-.4,0-.54-.22-.39-.59.37-.92,4.73-11.73,5-12.51a3.27,3.27,0,0,0,.23-1.61c0-.34-.32-.7-1-.39a8.07,8.07,0,0,0-1.35.81,17.06,17.06,0,0,0-2.83,2.71.92.92,0,0,1-.23.2c-.19.11-.42.21-.55,0a.61.61,0,0,1,0-.55c.55-.69,1.13-1.36,1.72-2a12.07,12.07,0,0,1,2.36-1.88,6.29,6.29,0,0,1,4.29-.93,1.81,1.81,0,0,1,1.56,1.68,8.23,8.23,0,0,1,0,1.6c0,.16,0,.33,0,.49l.09,0"/></g><path class="cls-3" d="M36.16,55.44l-.57.55a10.48,10.48,0,0,1-3.29,2.38,3.61,3.61,0,0,1-3.7-.15,3.24,3.24,0,0,1-1.35-2.09,8.12,8.12,0,0,1,.25-2.41,20.63,20.63,0,0,1,.67-2.1q.48-1.28,1-2.55c.36-.89.75-1.77,1.12-2.66s.79-2,1.19-2.93c.2-.5.42-1,.61-1.5a.61.61,0,0,1,.65-.43c1.06,0,2.12,0,3.19,0,.38,0,.47.09.32.45-.59,1.44-1.18,2.88-1.78,4.32-.11.28-.23.55-.34.83-.52,1.37-1,2.73-1.56,4.1-.37,1-.77,2-1.06,3a2.09,2.09,0,0,0-.06,1.46,1.06,1.06,0,0,0,.93.67,3,3,0,0,0,1.86-.74A8.58,8.58,0,0,0,36.57,53c.5-.83,1.79-4.21,2.11-5,.46-1.1,1-2.17,1.45-3.26.38-.87.72-1.76,1.08-2.63.2-.48.31-.55.83-.55h3c.46,0,.53.09.35.52-.44,1.08-.88,2.17-1.32,3.25-.61,1.47-1.24,2.94-1.83,4.41s-1.23,3.08-1.8,4.63A6.84,6.84,0,0,0,40.13,56c-.07.68.23.88.85.59A4.64,4.64,0,0,0,42,55.89c.6-.52,1.15-1.09,1.72-1.64.07-.07.15-.17.24-.19a3.94,3.94,0,0,1,.58,0c0,.2,0,.45-.06.58a12.63,12.63,0,0,1-4,3.75,3.41,3.41,0,0,1-2.91.27,1.92,1.92,0,0,1-1.15-1.26,15,15,0,0,1-.29-1.57c0-.08,0-.16,0-.34"/><text class="cls-4" transform="translate(142.25 59.43) scale(1.01 1)">®</text></svg>