<svg id="color" xmlns="http://www.w3.org/2000/svg" xmlns:xlink="http://www.w3.org/1999/xlink" width="148" height="100" viewBox="0 0 148 100">
  <defs>
    <style>
      .cls-1, .cls-4 {
        fill: none;
      }

      .cls-2 {
        fill: #eb2027;
      }

      .cls-3 {
        clip-path: url(#clip-path);
      }

      .cls-4 {
        stroke: #eb2027;
        stroke-width: 0.86px;
      }

      .cls-5 {
        fill: #fff;
      }
    </style>
    <clipPath id="clip-path">
      <rect class="cls-1" y="32" width="147.08" height="48"/>
    </clipPath>
  </defs>
  <title>color_reynolds</title>
  <g>
    <path class="cls-2" d="M1.16,37.7s21.52-5.53,67.69-5.53,78,7.74,78,7.74L132.91,77s-47.42,2.78-69.66,2.78-63-4.07-63-4.07A42.47,42.47,0,0,0,4.83,56.31c0-11.51-3.67-18.6-3.67-18.6Z"/>
    <g class="cls-3">
      <path class="cls-4" d="M1.16,37.7s21.52-5.53,67.69-5.53,78,7.74,78,7.74L132.91,77s-47.42,2.78-69.66,2.78-63-4.07-63-4.07A42.47,42.47,0,0,0,4.83,56.31c0-11.51-3.67-18.6-3.67-18.6Z"/>
    </g>
    <path class="cls-5" d="M18.46,44h6.18c5.36,0,6.46,1.14,4.94,5.34l-1,2.69c-1.22,3.4-2.21,6.08-5.35,6.08h0L25,66.46H20.41l-1.56-8.21-.67-.09L15.4,66.39h-5L18.46,44ZM19.9,54.84h1c1.78,0,1.92-.49,2.44-1.94l1.21-3.37c.41-1.14.49-1.67-.6-1.67H22.42l-2.51,7Z"/>
    <path class="cls-4" d="M18.46,44h6.18c5.36,0,6.46,1.14,4.94,5.34l-1,2.69c-1.22,3.4-2.21,6.08-5.35,6.08h0L25,66.46H20.41l-1.56-8.21-.67-.09L15.4,66.39h-5L18.46,44ZM19.9,54.84h1c1.78,0,1.92-.49,2.44-1.94l1.21-3.37c.41-1.14.49-1.67-.6-1.67H22.42l-2.51,7Z"/>
    <path class="cls-5" d="M38.64,66.46c-.22,0-5.86.17-6.06.17-3.38-.09-4.87-1-3.44-5l2.25-6.24c1.52-4.23,3.85-5,7.68-5,4.88,0,5.2,1.88,4.31,4.35l-1.76,4.88H34.5l-1,2.66c-.25.69-.23,1,.44,1.06.14,0,6.36-.24,6.55-.24m-5-6.37H38l.83-2.32c.23-.65.12-.93-.9-.93s-1.34.28-1.57.93l-.83,2.32Z"/>
    <path class="cls-4" d="M38.64,66.46c-.22,0-5.86.17-6.06.17-3.38-.09-4.87-1-3.44-5l2.25-6.24c1.52-4.23,3.85-5,7.68-5,4.88,0,5.2,1.88,4.31,4.35l-1.76,4.88H34.5l-1,2.66c-.25.69-.23,1,.44,1.06.14,0,6.36-.24,6.55-.24m-5-6.37H38l.83-2.32c.23-.65.12-.93-.9-.93s-1.34.28-1.57.93l-.83,2.32Z"/>
    <polygon class="cls-5" points="47.06 66.29 43.05 71.75 47.06 71.75 61.35 50.64 57.31 50.74 51.13 60.01 50.79 60.34 51.37 50.74 47.36 50.74 47.06 66.29 47.06 66.29"/>
    <path class="cls-5" d="M58.41,66.39h4.46l4.06-11.27c.24-.68,1.71-1.08,2.49-1.08s1,.4.76,1.08L66.12,66.39h4.46L75,54c1-2.72-.23-3.61-2.19-3.61a6.8,6.8,0,0,0-4.86,2h-.06l.62-1.73H64.09L58.41,66.39Z"/>
    <path class="cls-5" d="M78.77,55.39c1.52-4.23,3.85-5,7.68-5s5.6.77,4.07,5l-2.25,6.24c-1.52,4.23-3.85,5-7.68,5s-5.6-.77-4.07-5l2.25-6.24ZM81,62c-.34,1-.05,1.14.82,1.14A1.43,1.43,0,0,0,83.48,62L86,55c.34-1,0-1.14-.82-1.14A1.43,1.43,0,0,0,83.55,55L81,62Z"/>
    <path class="cls-4" d="M78.77,55.39c1.52-4.23,3.85-5,7.68-5s5.6.77,4.07,5l-2.25,6.24c-1.52,4.23-3.85,5-7.68,5s-5.6-.77-4.07-5l2.25-6.24ZM81,62c-.34,1-.05,1.14.82,1.14A1.43,1.43,0,0,0,83.48,62L86,55c.34-1,0-1.14-.82-1.14A1.43,1.43,0,0,0,83.55,55L81,62Z"/>
    <polygon class="cls-5" points="91.12 66.39 95.58 66.39 103.64 44.03 99.18 44.03 91.12 66.39 91.12 66.39"/>
    <path class="cls-5" d="M105.07,53.57a4.38,4.38,0,0,1,4.49-3.18c1.6,0,2.58,0,2.93,1.07l.29-.72L115.19,44h4.46L111.6,66.39h-4.25l.59-1.64-.4.68c-1.46,1.64-2,1.2-3.59,1.2-2.71,0-3.2-1.08-2-4.29l3.16-8.77Zm1.56,8.55c-.21.59,0,.87.71.87a1.28,1.28,0,0,0,1.34-.87l2.6-7.22c.21-.59-.05-.86-.71-.86a1.28,1.28,0,0,0-1.34.86l-2.6,7.22Z"/>
    <path class="cls-4" d="M105.07,53.57a4.38,4.38,0,0,1,4.49-3.18c1.6,0,2.58,0,2.93,1.07l.29-.72L115.19,44h4.46L111.6,66.39h-4.25l.59-1.64-.4.68c-1.46,1.64-2,1.2-3.59,1.2-2.71,0-3.2-1.08-2-4.29l3.16-8.77Zm1.56,8.55c-.21.59,0,.87.71.87a1.28,1.28,0,0,0,1.34-.87l2.6-7.22c.21-.59-.05-.86-.71-.86a1.28,1.28,0,0,0-1.34.86l-2.6,7.22Z"/>
    <path class="cls-5" d="M117.11,62.9c-1.09,3,.07,3.74,4,3.74,3.62,0,6.15-.76,8-5.62,1-2.57.14-3.76-2.3-4.2-1.73-.31-2.85-.86-2.47-1.91a2.56,2.56,0,0,1,2.22-1.76c.69,0,.85.4.59,1.11l-.27.74h3.92l.66-1.82c.81-2.25-.11-3.21-4-3.12-4.13.09-6.16,1-7.81,5.59-1.1,3.06-.39,3.77,2.58,4.23,2.08.34,2.52.74,2.13,2.07a2.11,2.11,0,0,1-2.24,1.42c-.81,0-1-.25-.54-1.42l.16-.43h-4.1l-.5,1.39Z"/>
  </g>
</svg>
