<svg id="color" xmlns="http://www.w3.org/2000/svg" viewBox="0 0 101 100"><defs><style>.cls-1{fill:#ed1c24;}</style></defs><title>color_nuk</title><path class="cls-1" d="M101.29,39a2.74,2.74,0,0,0-2.73-2.78h0A2.78,2.78,0,1,0,101.29,39m-.51,0a2.23,2.23,0,1,1-4.46,0,2.29,2.29,0,0,1,2.23-2.35h0A2.28,2.28,0,0,1,100.78,39m-1.73.09v0a.81.81,0,0,0,.32-1.4,1.64,1.64,0,0,0-1-.23,5.37,5.37,0,0,0-.88.07v3.1H98V39.27h.35a.59.59,0,0,1,.67.55,2.1,2.1,0,0,0,.21.79h.52a2.58,2.58,0,0,1-.19-.77c-.06-.46-.25-.7-.52-.75m-.66-.2H98v-1l.36,0c.56,0,.76.27.76.54s-.35.53-.76.53M87.81,55c-.93-1.15-.82-1,.15-2.6.81-1.33,4-6,5.54-8.38,1.63-2.58.35-5.45-2-7a5.09,5.09,0,0,0-7.19,1.43c-1.44,2.42-4.07,6.82-5.31,8.78-.21.33-1.59,2.75-1.59.33V41.91c0-4.39-2.86-5.69-5.53-5.69s-5.55,1.31-5.55,5.69V68.14c0,4.38,2.87,5.69,5.55,5.69s5.53-1.31,5.53-5.69V61.21c0-.25-.15-2,1.61.42.76,1.06,5.05,7.07,5.93,8.28,2.8,3.88,6.31,5.14,9.59,2.62s2.66-5.85-.27-9.51c-2.22-2.77-6.1-7.54-6.46-8m-26,5.3V41.91c0-4.38-2.86-5.69-5.54-5.69s-5.54,1.31-5.54,5.69V59.7c0,2.65-1.58,3.77-3.2,3.77s-3.2-1.12-3.2-3.77V41.91c0-4.38-2.85-5.69-5.54-5.69s-5.54,1.31-5.54,5.69V60.33c0,8.27,5.5,14.23,14.28,14.23s14.27-6,14.27-14.23m-33,7.81V41.91c0-4.38-2.83-5.69-5.55-5.69s-5.54,1.31-5.54,5.69V47.8c0,3.19-1.59.48-2-.18-.84-1.37-3.07-5-4.95-8.15a5.82,5.82,0,0,0-5.25-3.26C2.86,36.21,0,37.53,0,41.91c0,2.81,0,21.85,0,26.23s2.86,5.69,5.53,5.69,5.52-1.31,5.52-5.69,0-5.72,0-6.52c0-2.87,1.37-.37,1.62,0C14,64,16.37,67.76,18.19,70.8a5.68,5.68,0,0,0,5.07,3c2.7,0,5.55-1.31,5.55-5.69"/></svg>