<svg id="color" xmlns="http://www.w3.org/2000/svg" xmlns:xlink="http://www.w3.org/1999/xlink" viewBox="0 0 166 100"><defs><style>.cls-1{fill:none;}.cls-2{clip-path:url(#clip-path);}.cls-3{fill:#95d600;}.cls-4{fill:#6d6e71;}</style><clipPath id="clip-path"><rect class="cls-1" y="32.51" width="165.96" height="37.97"/></clipPath></defs><title>color_babyjogger</title><g class="cls-2"><path class="cls-3" d="M129.78,33.42c-.27.08-.57.33,0,.36,13.51.67,16.15,11,17.74,18.2.13.59.33.34.38-.21.44-3.8.64-9.8-2.23-14.21-2.55-3.92-7.73-6.54-15.93-4.14Z"/><path class="cls-3" d="M161.38,64.48l.22-.13.28-.18.46-.34.09-.07a7.4,7.4,0,0,0,1.41-1.57l.06-.08.13-.2a14.63,14.63,0,0,0,1.91-8.09c-1.09-15-13.93-19.54-20.3-20.77-.15,0-.2.21-.07.3,4.93,3.52,6.37,10.24,5.47,17.28,0,.18.23.2.33,0,2.32-4.35,8.29-3.89,10.7-2.09a7.55,7.55,0,0,1,3,7.65,7.21,7.21,0,0,0-6.91-6.1,7.64,7.64,0,0,0,0,15.23,6.57,6.57,0,0,0,2.7-.58h0l.09,0,.43-.22Z"/></g><path class="cls-4" d="M62.87,44.55c0-.94.45-1.29,1.23-1.29s1.23.36,1.23,1.29a1.23,1.23,0,1,1-2.46,0Zm.19,5.31a1,1,0,1,1,2.07,0v15a4.68,4.68,0,0,1-4.72,4.85,1,1,0,1,1,0-1.94,2.73,2.73,0,0,0,2.65-2.91v-15Z"/><path class="cls-4" d="M78.9,56.39c0-4.08-1.72-5.89-4.69-5.89s-4.69,1.81-4.69,5.89,1.71,5.92,4.69,5.92,4.69-1.78,4.69-5.92Zm2.1,0c0,5.31-2.59,7.8-6.79,7.8s-6.8-2.49-6.8-7.8,2.62-7.77,6.8-7.77S81,51.08,81,56.39Z"/><path class="cls-4" d="M94.16,55c0-3.07-1.94-4.53-4.37-4.53-3,0-4.63,1.88-4.63,5.92s1.65,5.89,4.63,5.89a5.1,5.1,0,0,0,4.37-2.62V55Zm0,9V62.21a5.45,5.45,0,0,1-4.37,2c-4.21,0-6.7-2.46-6.7-7.77s2.49-7.8,6.7-7.8c3.69,0,6.47,2.14,6.47,6.41v9c0,4.4-3,6.21-6.63,6.21A6.76,6.76,0,0,1,84.23,68a1,1,0,0,1-.19-.58,1,1,0,0,1,1-1,1,1,0,0,1,.78.36,4.91,4.91,0,0,0,3.82,1.52c2.65,0,4.53-1.33,4.53-4.27Z"/><path class="cls-4" d="M109.52,55c0-3.07-1.94-4.53-4.37-4.53-3,0-4.63,1.88-4.63,5.92s1.65,5.89,4.63,5.89a5.1,5.1,0,0,0,4.37-2.62V55Zm0,9V62.21a5.45,5.45,0,0,1-4.37,2c-4.21,0-6.7-2.46-6.7-7.77s2.49-7.8,6.7-7.8c3.69,0,6.47,2.14,6.47,6.41v9c0,4.4-3,6.21-6.63,6.21A6.76,6.76,0,0,1,99.58,68a1,1,0,0,1-.2-.58,1,1,0,0,1,1.78-.65A4.91,4.91,0,0,0,105,68.33c2.65,0,4.53-1.33,4.53-4.27Z"/><path class="cls-4" d="M120.47,50.5c-2.81,0-4.37,1.81-4.56,4.69h8.7c0-2.33-.81-4.69-4.14-4.69Zm0-1.88c5.18,0,6.18,4.11,6.18,6.31,0,.94,0,2.07-1.3,2.07h-9.45c0,3.2,1.85,5.27,4.89,5.27a6,6,0,0,0,3.88-1.39.9.9,0,0,1,.58-.19.94.94,0,0,1,.94.94,1,1,0,0,1-.36.74,7.2,7.2,0,0,1-5,1.81c-4.3,0-7-2.36-7-7.8,0-5,2.46-7.77,6.66-7.77Z"/><path class="cls-4" d="M131.27,51.28a4.67,4.67,0,0,1,4.5-2.59,1,1,0,1,1,0,2c-3,0-4.5,2.07-4.5,5V63a1,1,0,1,1-2.07,0V49.85a1,1,0,1,1,2.07,0v1.42Z"/><path class="cls-4" d="M2.07,58c0,3.07,1.78,4.5,4.27,4.5,3,0,4.56-1.88,4.56-5.92s-1.62-5.89-4.56-5.89a4.9,4.9,0,0,0-4.27,2.85V58ZM13,56.6c0,5.31-2.46,7.8-6.63,7.8C2.65,64.39,0,62.29,0,58V42a1,1,0,0,1,1-1,1,1,0,0,1,1,1v9a5.49,5.49,0,0,1,4.4-2.1c4.17,0,6.5,2.46,6.5,7.77Z"/><path class="cls-4" d="M24.52,58.38V57H20c-2.1,0-3.56.87-3.56,2.75,0,1.68,1.17,2.75,3.69,2.75,2.26,0,4.43-1.39,4.43-4.14Zm-7.57-6a1.05,1.05,0,0,1-.84.45.94.94,0,0,1-.94-.94,1,1,0,0,1,.16-.55,6,6,0,0,1,5.37-2.56c3.75,0,5.82,2.2,5.82,5.5v8.9a1,1,0,1,1-2,0V62.06a5.13,5.13,0,0,1-4.63,2.33c-3.43,0-5.6-1.65-5.6-4.63S16.47,55.2,20,55.2h4.56v-.87c0-2.2-1.46-3.56-3.82-3.56A4.48,4.48,0,0,0,17,52.42Z"/><g class="cls-2"><path class="cls-4" d="M30.79,58c0,3.07,1.78,4.5,4.27,4.5,3,0,4.56-1.88,4.56-5.92S38,50.71,35.06,50.71a4.9,4.9,0,0,0-4.27,2.85V58Zm10.9-1.42c0,5.31-2.46,7.8-6.63,7.8-3.69,0-6.34-2.1-6.34-6.37V42a1,1,0,1,1,2.07,0v9a5.49,5.49,0,0,1,4.4-2.1c4.17,0,6.5,2.46,6.5,7.77Z"/><path class="cls-4" d="M47.5,63.36,42.1,50.51a1.19,1.19,0,0,1-.1-.45,1,1,0,0,1,1-1,1,1,0,0,1,1,.68l4.56,11.16L53.14,49.7a1,1,0,0,1,1-.68,1,1,0,0,1,1,1,1.18,1.18,0,0,1-.1.45L48.67,65.69c-1.33,3.17-3,4.79-6.05,4.79a1,1,0,0,1,0-1.94c2.81,0,3.56-1.91,4.88-5.18Z"/></g><path class="cls-4" d="M138.39,47.14a.25.25,0,0,0,0-.5H138v.5Zm-.41.21v.48a.13.13,0,0,1-.25,0V46.55a.13.13,0,0,1,.13-.13h.54a.46.46,0,0,1,.49.46.45.45,0,0,1-.4.47l.32.4a.11.11,0,0,1,0,.08.12.12,0,0,1-.12.13.14.14,0,0,1-.11-.06l-.4-.55Zm1.48-.17c0-.89-.41-1.25-1.17-1.25s-1.17.36-1.17,1.25.42,1.26,1.17,1.26,1.17-.37,1.17-1.26Zm.27,0a1.44,1.44,0,1,1-1.45-1.48,1.31,1.31,0,0,1,1.45,1.48Z"/></svg>