<svg id="color" xmlns="http://www.w3.org/2000/svg" xmlns:xlink="http://www.w3.org/1999/xlink" width="181" height="100" viewBox="0 0 181 100">
  <defs>
    <style>
      .cls-1 {
        fill: none;
      }

      .cls-2 {
        clip-path: url(#clip-path);
      }

      .cls-3 {
        fill: #c42032;
      }
    </style>
    <clipPath id="clip-path">
      <rect class="cls-1" y="40" width="181" height="18.82"/>
    </clipPath>
  </defs>
  <title>color_stearns</title>
  <g>
    <g class="cls-2">
      <path class="cls-3" d="M177.67,44.17l0-1.06H178a1.13,1.13,0,0,1,.31.06.39.39,0,0,1,.24.21,1.17,1.17,0,0,1,.06.37,1.44,1.44,0,0,0,.06.4h.8l0-.07a.46.46,0,0,1,0-.09s0-.06,0-.09v-.27a.74.74,0,0,0-.3-.66,1.26,1.26,0,0,0-.47-.17,1.13,1.13,0,0,0,.55-.2.58.58,0,0,0,.22-.54.73.73,0,0,0-.43-.71,2,2,0,0,0-.64-.15h-1.57l0,3Zm.94-2.05a.42.42,0,0,1-.16.35.9.9,0,0,1-.47.11h-.33v-.87h.2a1.57,1.57,0,0,1,.5.06.33.33,0,0,1,.26.33m2.39.54a2.51,2.51,0,0,0-.88-1.89,3.11,3.11,0,0,0-4.06,0,2.42,2.42,0,0,0-.87,2,2.47,2.47,0,0,0,.86,1.89,3,3,0,0,0,2.07.77,2.92,2.92,0,0,0,2-.77,2.47,2.47,0,0,0,.85-1.93m-2.94-2.19a2.41,2.41,0,0,1,1.7.66,2,2,0,0,1,.72,1.54,2,2,0,0,1-.68,1.58,2.33,2.33,0,0,1-1.68.67,2.41,2.41,0,0,1-1.7-.64,2.1,2.1,0,0,1-.73-1.57,2,2,0,0,1,.67-1.56,2.36,2.36,0,0,1,1.7-.68"/>
    </g>
    <polygon class="cls-3" points="29.08 44.01 35.96 44.01 30.15 58.79 38.23 58.79 43.9 44.01 49.55 44.01 51.05 40.36 30.58 40.36 29.08 44.01 29.08 44.01"/>
    <path class="cls-3" d="M113.8,44.43l-.88,2.25a1.33,1.33,0,0,1-1.49,1h-3.91l1.77-4.33h3.82c.78,0,1,.17.69,1m-11.37-4L94.9,58.82H103l3.25-7.73h1.87l1.33,7.73h8l-1.41-8c2.86,0,3.74-1.19,4.36-2.8l1.39-3.55c1.21-3.12,0-4-3.17-4Z"/>
    <polygon class="cls-3" points="57.22 51.37 55.68 55.14 68 55.14 66.49 58.81 46.06 58.81 53.59 40.39 74.04 40.38 72.56 43.98 60.21 43.98 58.68 47.75 69.76 47.75 68.27 51.37 57.22 51.37 57.22 51.37"/>
    <path class="cls-3" d="M84.67,50.8h-5l4.81-5.16.22,5.16Zm.06-10.4-17,18.4h4.56l4.34-4.63h8.16l.2,4.63h8.15l-.79-18.4Z"/>
    <polygon class="cls-3" points="144.79 40.33 139.18 55.41 139.18 55.41 137.46 40.33 127.28 40.33 119.7 58.82 123.37 58.82 129.62 43.51 131.33 58.82 141.45 58.82 149.01 40.33 144.79 40.33 144.79 40.33"/>
    <path class="cls-3" d="M20.35,47.12H14.17c-1,0-1.23-.18-1-.73l.59-1.63c.24-.57.59-.74,1.6-.74h11L27.9,40.3H11c-2.73,0-4.31,2-5.2,4.24l-1.3,3.31c-1.1,2.86-.71,3.87,2.06,3.87h8.79c.93,0,1.16.17.92.8l-.72,1.85c-.24.61-.53.82-1.46.82l-12.61,0L0,58.78H16.13c3,0,4.91-1.51,6-4.36l1.48-3.75c1-2.51-.48-3.55-3.28-3.55"/>
    <path class="cls-3" d="M165.32,47.12h-6.17c-1,0-1.23-.18-1-.73l.61-1.63c.22-.57.59-.74,1.59-.74h11l1.53-3.73H156c-2.73,0-4.31,2-5.2,4.24l-1.29,3.31c-1.12,2.86-.72,3.87,2,3.87h8.78c.94,0,1.17.17.93.8l-.73,1.85c-.24.61-.53.82-1.46.82l-12.61,0L145,58.78H161.1c3,0,4.92-1.51,6-4.36l1.48-3.75c1-2.51-.49-3.55-3.29-3.55"/>
  </g>
</svg>
