<svg id="color" xmlns="http://www.w3.org/2000/svg" xmlns:xlink="http://www.w3.org/1999/xlink" width="109" height="100" viewBox="0 0 109 100">
  <defs>
    <style>
      .cls-1 {
        fill: none;
      }

      .cls-2 {
        clip-path: url(#clip-path);
      }

      .cls-3 {
        fill: #fff;
      }

      .cls-4 {
        fill: #231f20;
      }
    </style>
    <clipPath id="clip-path">
      <rect class="cls-1" y="25" width="108" height="51.62"/>
    </clipPath>
  </defs>
  <title>color_brk</title>
  <g>
    <g class="cls-2">
      <polygon class="cls-3" points="100.11 74.34 1.71 74.34 1.71 67.67 100.11 67.67 100.11 74.34 100.11 74.34"/>
      <path class="cls-4" d="M16.91,46.87a36.05,36.05,0,0,0-5,.12v5.67c2.69,0,6.1.57,7.59-1.83a2.37,2.37,0,0,0,0-2.46,4.2,4.2,0,0,0-2.57-1.49ZM42.79,34c-.06,3-.06,5.49,0,8.64l3.78.06c2.46-.12,5.26-.49,6.13-3.13a3.84,3.84,0,0,0-.52-3.26c-2.29-3-6-2.08-9.39-2.31Zm-26.22-.06A13.78,13.78,0,0,0,12,34l-.06,4.29c1.84.29,4,.46,5.67-.34.74-.63,1.37-1.26,1.15-2.35-.29-.92-1.37-1.43-2.18-1.72Zm14.17-8.78h0Zm70.84,36.5H88.31c-4-4.63-8-9.68-12.08-14.38V61.62H51.4c-2.83-3.69-5.75-7.53-8.73-10.91V61.6h-12V54c-2.23,4.47-8.33,7.35-13.19,7.58-7.16,0-11.27.06-17.49,0V25H19.2c3.9.46,8,2.35,9.45,6.3,1.09,2.8.91,6.58-1.43,8.76-.51.63-1.46,1.26-1.89,1.77a10.2,10.2,0,0,1,5.43,4.72V25.15H50.17c5.5.17,11.22,2.48,13.28,7.87,1.43,4,1.15,9.11-2.12,12.08-1.84,1.95-4.4,3.08-6.74,4.11l0-.07c3.09,3.61,6.6,7.28,9.86,10.94l.11-24.94s-.05-6.81,0-10.08H76.45V40.29h.12C80.63,35.54,85,30.08,89.16,25h13.17L87.07,43.48l14.5,18.17Z"/>
    </g>
    <path class="cls-4" d="M83.2,70.14h-.07V71.8h0c.58,0,1-.23,1-.86s-.47-.8-1-.8Z"/>
    <polygon class="cls-4" points="57.28 71.52 57.92 71.52 57.59 70.22 57.28 71.52 57.28 71.52"/>
    <polygon class="cls-4" points="73.82 71.52 74.46 71.52 74.13 70.22 73.82 71.52 73.82 71.52"/>
    <path class="cls-4" d="M48,70.12a.81.81,0,0,0-.77.82.79.79,0,0,0,.75.84c.54,0,.78-.47.78-.95a.78.78,0,0,0-.75-.71Z"/>
    <path class="cls-4" d="M26.47,70.12a.81.81,0,0,0-.78.82.79.79,0,0,0,.75.84c.54,0,.77-.47.77-.95a.78.78,0,0,0-.75-.71Z"/>
    <path class="cls-4" d="M17.6,70h-.16v.74h.12c.25,0,.56-.1.56-.4s-.3-.36-.53-.36Z"/>
    <path class="cls-4" d="M21.74,70l-.19,0v.71h.21c.22,0,.48-.11.48-.37S22,70,21.74,70Z"/>
    <polygon class="cls-4" points="87.89 71.52 88.53 71.52 88.2 70.22 87.89 71.52 87.89 71.52"/>
    <path class="cls-4" d="M92.5,70l-.2,0v.71h.22c.22,0,.47-.11.47-.37S92.74,70,92.5,70Z"/>
    <path class="cls-4" d="M96.66,70.14h-.07V71.8h0c.58,0,1-.23,1-.86s-.46-.8-1-.8Z"/>
    <path class="cls-4" d="M97.19,73.05H95v-4.2h0l1.46,0c1.47,0,2.67.51,2.67,2.18a2,2,0,0,1-2,2Zm-4.08,0-.8-1.6v1.59H90.86v-4.2h1.91c.9,0,1.72.39,1.72,1.4,0,.63-.25.85-.76,1.14l1,1.67Zm-4.17,0-.14-.54H87.63l-.14.54H85.92l1.38-4.21h1.85l1.36,4.21Zm-5.2,0H81.59v-4.2h0l1.47,0c1.47,0,2.67.51,2.67,2.18a2,2,0,0,1-2,2Zm-2.68,0H79.59c-.48-.69-.93-1.39-1.36-2.11,0,.15,0,.3,0,.44,0,.37,0,.74,0,1.1,0,.19,0,.37,0,.55H76.8V68.84h1.42c.48.69,1,1.39,1.38,2.12V68.83h1.45v4.25Zm-6.19,0-.14-.54H73.56l-.14.54H71.85l1.38-4.21h1.85l1.36,4.21Zm-3.57,0H69.74v-3H68.9V68.84h3.22v1.25h-.84v3Zm-4.56.09a3.65,3.65,0,0,1-1.7-.48l.48-1.15a2,2,0,0,0,1,.45c.13,0,.4-.08.4-.25,0-.44-1.74-.07-1.74-1.5a1.62,1.62,0,0,1,1.73-1.51,3.43,3.43,0,0,1,1.51.4L68,70.2a2.21,2.21,0,0,0-1-.32c-.1,0-.3.1-.3.22,0,.39,1.78.12,1.78,1.51a1.65,1.65,0,0,1-1.8,1.55Zm-3.56-.09H60.31V68.83h1.53v2.85h1.35v1.38Zm-4.85,0-.14-.54H57l-.14.54H55.31l1.38-4.21h1.85l1.36,4.21Zm-3.31,0H53.55c-.48-.69-.93-1.39-1.37-2.11,0,.15,0,.3,0,.44,0,.37,0,.74,0,1.1,0,.19,0,.37,0,.55H50.75V68.84h1.43c.48.69,1,1.39,1.38,2.12V68.83H55v4.25Zm-7,.07A2.21,2.21,0,1,1,50.28,71,2.16,2.16,0,0,1,48,73.15Zm-2.68-.07H43.79V68.84h1.55v4.24Zm-4,.08a3.64,3.64,0,0,1-1.7-.48l.48-1.15a2,2,0,0,0,1,.45c.13,0,.39-.08.39-.25,0-.44-1.74-.07-1.74-1.5a1.62,1.62,0,0,1,1.73-1.51,3.4,3.4,0,0,1,1.5.4l-.43,1.08a2.21,2.21,0,0,0-1-.32c-.11,0-.3.1-.3.22,0,.39,1.78.12,1.78,1.51a1.65,1.65,0,0,1-1.8,1.55Zm-3.83,0a3.64,3.64,0,0,1-1.7-.48l.47-1.15a2,2,0,0,0,1,.45c.13,0,.39-.08.39-.25,0-.44-1.74-.07-1.74-1.5a1.62,1.62,0,0,1,1.73-1.51,3.4,3.4,0,0,1,1.5.4l-.43,1.08a2.21,2.21,0,0,0-1-.32c-.1,0-.3.1-.3.22,0,.39,1.78.12,1.78,1.51a1.65,1.65,0,0,1-1.8,1.55Zm-2.06-.09H32.6V68.85h2.85V70H34v.35h1.3v1.11H34v.41h1.46v1.18Zm-3.36-3H30.8v.42H32V71.6H30.8v1.47H29.26V68.85h2.87V70ZM26.5,73.15A2.21,2.21,0,1,1,28.75,71a2.16,2.16,0,0,1-2.26,2.18Zm-4.16-.09-.8-1.6v1.59H20.1v-4.2H22c.9,0,1.72.39,1.72,1.4,0,.63-.25.85-.76,1.14l1,1.67Zm-4.9-1.27v1.26H15.91V68.85h1.9c1.07,0,1.79.44,1.79,1.58,0,1.36-1.1,1.39-2.15,1.38Zm-3.71,1.27H10.84V68.85h2.84V70H12.27v.35h1.3v1.11h-1.3v.41h1.46v1.18Zm-3.48,0H8.72V71.59H7.78v1.47H6.24V68.85H7.79v1.38h.93v-1.4h1.53v4.23Zm-4.4-3H5v3H3.47v-3H2.63V68.84H5.86v1.25ZM0,65v11.6H102.21V65Z"/>
    <path d="M105.15,30.38a2.39,2.39,0,1,1,2.32-2.4,2.36,2.36,0,0,1-2.32,2.4Zm0-5.33A2.94,2.94,0,1,0,108,28a2.9,2.9,0,0,0-2.85-2.93Z"/>
    <path d="M105.48,27.78h-.9v-.89h.75c.3,0,.73,0,.73.41s-.24.49-.58.48Zm1.18-.38a.92.92,0,0,0-.37-.82,1.6,1.6,0,0,0-.84-.16H104v3.18h.6V28.25h.6l.68,1.34h.7l-.75-1.34c.54,0,.84-.28.84-.85Z"/>
  </g>
</svg>
