<svg id="color" xmlns="http://www.w3.org/2000/svg" xmlns:xlink="http://www.w3.org/1999/xlink" viewBox="0 0 104 100"><defs><style>.cls-1{fill:none;}.cls-2{clip-path:url(#clip-path);}.cls-3,.cls-4{fill:#231f20;}.cls-3{fill-rule:evenodd;}</style><clipPath id="clip-path"><rect class="cls-1" y="14.63" width="103.75" height="65.82"/></clipPath></defs><title>color_ball</title><g class="cls-2"><path class="cls-3" d="M53.24,50.5c-1.54,2.61-4.16,4.75-4.87,4.4s-1.66-1.66,0-5.11c2.22-4.6,6.18-8.2,7.49-7.37,1.31,1.31-1.07,5.47-2.61,8.08M81.41,23.76c1.9-1.9,2.26.24,1.19,2.5A67.89,67.89,0,0,1,71.21,42.18c1.87-8.36,8.39-16.61,10.19-18.42m17.71-4.63c2-.44-2.78,9.75-11.64,18.63,1.4-7.4,8.65-18.42,11.64-18.63M87.31,41.46a88.46,88.46,0,0,0,15.61-20.67c2.38-4.52-.71-7.61-4.28-5.47S84,28.92,82.06,42.29c-2.36,2.83-5.07,5.57-7.79,6.78-2.41,1.07-3.35-.74-3.46-3.12,7-5.8,16.68-19.91,17.25-24.57.59-4.87-2.73-3.8-5.59-2.14-7.61,4.52-15,19-16.64,24.36a18.83,18.83,0,0,0-.94,4.52c-5.56,6.14-6.56,4-5.36.47l5.23-11.77-3.09-.24a25.6,25.6,0,0,0-3,2.61C51,34.7,43.5,48.6,42.66,50.62S38.5,60.25,43,61.67s7.72-3,9.86-6.54c-.12,1.43,1.43,3,3,3.56,2.15.62,6.26-3.73,9.4-8.06.58,1.43,1.89,2.4,4.26,2.84,4.44.81,9.39-3.86,12.6-7.62,1.12,4.28,6,4.89,11.29,4.89C81.53,53.83,39.22,68.81,28,75.22l9,5.23c11.17-7.84,38.74-23.29,66.31-30.9l-.71-2.38C97,48.3,88.21,49.64,87.31,41.46"/><path class="cls-3" d="M16.71,62.57a166.94,166.94,0,0,1,7.75-14.85C27.66,46,29.86,46,32,46.7c2.38.83,3.09,6.54.48,11.29-2.5,4.55-10.66,11.59-15.74,4.58M37.2,28.52c.84-1.06,1.64-2,2.41-2.8,3.15.77,5.89,2.59,3.77,8.15-2.79,7.32-11.25,10-15.85,8.75a164.69,164.69,0,0,1,9.67-14.1m.48,31c2-4.63,3.45-10.58-2-14.38C40.76,44.09,48.13,39,48.61,33c.36-4.53-1.49-7.81-6.76-9.48,3.16-2.72,5.56-3.27,6.88-2.28C50.39,22.93,53,21,51.1,19.6c-3.51-3.29-8.63-1.52-13.32,3.06-.61-.08-1.23-.15-1.9-.21C26,21.62,10.1,26.38,3.33,36.36-1,43-.59,50.74,11.17,49.08c1.78-.36,1.54-2.14-.12-2s-3.8-1.66-3.57-4.75,5.91-16.47,27.92-17.09C25.75,36.27,7.52,63.93,0,77.84c0,0,7.61-1.66,12.12-3.09A79.79,79.79,0,0,1,15.21,66a9.34,9.34,0,0,0,9,4.33c6.18-.48,11.41-6.18,13.43-10.81"/></g><path class="cls-4" d="M100.07,55.6h.28c.33,0,.6-.11.6-.38s-.17-.39-.55-.39a1.42,1.42,0,0,0-.33,0v.74Zm0,1.46h-.6V54.48a5.23,5.23,0,0,1,1-.08,1.6,1.6,0,0,1,.9.19.71.71,0,0,1,.25.57.66.66,0,0,1-.53.6v0a.76.76,0,0,1,.47.63,2,2,0,0,0,.19.64h-.64a2.22,2.22,0,0,1-.2-.63c0-.28-.2-.41-.53-.41h-.28v1Zm-1.59-1.35a2,2,0,0,0,2,2.06,2,2,0,0,0,2-2,2,2,0,1,0-4,0Zm4.64,0a2.65,2.65,0,1,1-2.64-2.58,2.59,2.59,0,0,1,2.64,2.58Z"/></svg>