<svg id="color" xmlns="http://www.w3.org/2000/svg" width="183" height="100" viewBox="0 0 183 100">
  <defs>
    <style>
      .cls-1 {
        fill: #231f20;
      }
    </style>
  </defs>
  <title>color_chesepeake</title>
  <g>
    <path class="cls-1" d="M90.21,40.62a18,18,0,1,1,18-18,18.06,18.06,0,0,1-18,18m0-34.24a16.2,16.2,0,1,0,16.2,16.2,16.21,16.21,0,0,0-16.2-16.2"/>
    <path class="cls-1" d="M100.79,23.09a.35.35,0,0,0-.28-.12c-.21,0-.32.24-.34.29a11.5,11.5,0,0,1-2.31,3.68,6.74,6.74,0,0,1-3.44,2l-.93.29a9.93,9.93,0,0,0-3.71,1.84,10.24,10.24,0,0,0-1.83,2c-.12.17-.25.35-.37.48a12.16,12.16,0,0,1,1.65-3.8A13.56,13.56,0,0,1,92.72,27l1-.68a17.29,17.29,0,0,0,4.86-4.79,9.5,9.5,0,0,0,1.42-3.6v-.07c.07-.46.16-1.09-.38-1.21h-.08c-.23,0-.38.2-.63.55-.12.15-.25.35-.44.58A9.81,9.81,0,0,1,96,19.91a16.24,16.24,0,0,1-2.69,1.25,30.25,30.25,0,0,1-3,.93l-.36.1a23.56,23.56,0,0,0-2.77.89,12.48,12.48,0,0,0-3,1.87,8,8,0,0,0-2.14,3.2A17.71,17.71,0,0,1,84.73,22a8.37,8.37,0,0,1,2.53-2.2l1.45-.77,1.82-1a20.76,20.76,0,0,0,2.95-2,16.68,16.68,0,0,0,1.42-1.37c2-2.11,2.51-4.34,2.22-5a.42.42,0,0,0-.66-.18l0,0a22.21,22.21,0,0,1-2,1.91,10,10,0,0,1-2.51,1.36,13.34,13.34,0,0,1-3.1.64A16.78,16.78,0,0,0,86,14a10.83,10.83,0,0,0-2.9,1.39A7.34,7.34,0,0,0,81,17.66a10.81,10.81,0,0,0-1.09,3.56v0a22.32,22.32,0,0,0-.32,3,.64.64,0,0,0,.14.44.34.34,0,0,0,.23.1c.09,0,.31,0,.38-.47A17.56,17.56,0,0,1,82,18.69a6.12,6.12,0,0,1,1.88-1.87,9.45,9.45,0,0,1,2.6-1.13c.73-.2,1.48-.37,2.28-.54a28,28,0,0,0,3.74-1,10.17,10.17,0,0,0,3.17-2.21l0,0a5.74,5.74,0,0,1-.88,1.3c-.4.44-1.69,1.65-2.1,2a21.27,21.27,0,0,1-2.83,1.92c-.48.27-1,.53-1.51.79l-.77.37c-.28.13-.54.27-.8.42a11.29,11.29,0,0,0-2.78,2.41,15.73,15.73,0,0,0-3.19,9c0,.16,0,1,.28,1.23a.38.38,0,0,0,.42.09c.23-.1.45-.48.92-1.35A16.22,16.22,0,0,1,85,26.41a7.39,7.39,0,0,1,2.6-1.54,15.22,15.22,0,0,1,1.46-.47L90.54,24l.2-.05a26.43,26.43,0,0,0,3-.93,10,10,0,0,0,2.72-1.57,13.37,13.37,0,0,0,2.12-2,9,9,0,0,1-1.64,2.38,19.85,19.85,0,0,1-3.77,3.31c-.16.11-.4.27-.68.44a14.21,14.21,0,0,0-4.25,3.58,13.15,13.15,0,0,0-1.36,3.25,9.4,9.4,0,0,0-.5,2.73c0,.5,0,1.18.44,1.23h0c.23,0,.38-.22.58-.56a8.06,8.06,0,0,1,.46-.67,14,14,0,0,1,2.5-2.62,19,19,0,0,1,4.08-1.78l.44-.15a9.91,9.91,0,0,0,4-2.82,10.78,10.78,0,0,0,1.94-4.3.47.47,0,0,0-.07-.38"/>
    <path class="cls-1" d="M180.58,54.22a.34.34,0,0,1-.16.33.82.82,0,0,1-.4.07h-.66v-.79H180a.68.68,0,0,1,.43.09.41.41,0,0,1,.11.3m1.26,1.8a2.58,2.58,0,0,1-.38.48l0-.05a.78.78,0,0,1-.17-.44v-.38a1.27,1.27,0,0,0-.1-.54.4.4,0,0,0-.22-.22.67.67,0,0,0,.26-.3,1,1,0,0,0,.1-.44.94.94,0,0,0-.13-.52.76.76,0,0,0-.35-.32,1.77,1.77,0,0,0-.7-.1h-1.46v3.33h.71v-1.3h.72c.2,0,.39,0,.44.17a1.08,1.08,0,0,1,0,.24V56a2.55,2.55,0,0,0,.1.49h.75a2.08,2.08,0,0,1-.4.31,2.16,2.16,0,0,1-1.12.3,2.21,2.21,0,0,1-1.13-.3,2.23,2.23,0,0,1-.82-3.09,2,2,0,0,1,.82-.83,2.17,2.17,0,0,1,1.13-.31,2.12,2.12,0,0,1,1.12.31,2.16,2.16,0,0,1,.82.83,2.2,2.2,0,0,1,.3,1.13,2.24,2.24,0,0,1-.3,1.13m.5-2.56a2.84,2.84,0,0,0-1-1,2.81,2.81,0,0,0-1.42-.38,2.77,2.77,0,0,0-1.42.38,2.74,2.74,0,0,0-1,1,2.85,2.85,0,0,0-.39,1.42,2.84,2.84,0,1,0,5.3-1.43"/>
    <path class="cls-1" d="M8.7,54,8,54.53a3.72,3.72,0,0,0-1.35-1.14A3.83,3.83,0,0,0,4.94,53,3.73,3.73,0,0,0,3,53.52a3.53,3.53,0,0,0-1.35,1.36,3.84,3.84,0,0,0-.49,1.94A3.71,3.71,0,0,0,5,60.62a3.78,3.78,0,0,0,3-1.46l.68.53A4.56,4.56,0,0,1,7.09,61a5.05,5.05,0,0,1-2.15.45,4.43,4.43,0,0,1-3.57-1.55A4.77,4.77,0,0,1,.27,56.76,4.47,4.47,0,0,1,1.6,53.47a4.52,4.52,0,0,1,3.33-1.33,4.85,4.85,0,0,1,2.18.49A4.25,4.25,0,0,1,8.7,54"/>
    <polygon class="cls-1" points="11.64 52.35 12.51 52.35 12.51 56.09 16.91 56.09 16.91 52.35 17.77 52.35 17.77 61.26 16.91 61.26 16.91 56.96 12.51 56.96 12.51 61.26 11.64 61.26 11.64 52.35"/>
    <polygon class="cls-1" points="21.11 52.35 26.07 52.35 26.07 53.23 21.96 53.23 21.96 56.02 26.02 56.02 26.02 56.89 21.96 56.89 21.96 60.38 26.02 60.38 26.02 61.26 21.11 61.26 21.11 52.35"/>
    <path class="cls-1" d="M27.87,59.58l.73-.45c.52,1,1.11,1.48,1.79,1.48a1.72,1.72,0,0,0,.81-.21,1.54,1.54,0,0,0,.59-.56A1.61,1.61,0,0,0,32,59.1a1.51,1.51,0,0,0-.29-.88,7.41,7.41,0,0,0-1.47-1.43,8,8,0,0,1-1.34-1.21,2.29,2.29,0,0,1-.46-1.36,2.07,2.07,0,0,1,.27-1.06,2,2,0,0,1,.76-.76,2.16,2.16,0,0,1,1.06-.27,2.22,2.22,0,0,1,1.15.31,4.08,4.08,0,0,1,1.11,1.15l-.7.55a3.49,3.49,0,0,0-.83-.88,1.38,1.38,0,0,0-.74-.21,1.16,1.16,0,0,0-.86.33,1.07,1.07,0,0,0-.33.8,1.27,1.27,0,0,0,.12.56,2,2,0,0,0,.43.59c.12.12.49.41,1.11.89a6.56,6.56,0,0,1,1.54,1.51,2.54,2.54,0,0,1,.42,1.34,2.27,2.27,0,0,1-.72,1.68,2.38,2.38,0,0,1-1.73.7A2.44,2.44,0,0,1,29,61a3.9,3.9,0,0,1-1.17-1.45"/>
    <path class="cls-1" d="M39.38,54.23l-1.49,3.24h3Zm.11-1.88,4,8.9H42.6l-1.35-2.91H37.49l-1.34,2.91h-1l4.08-8.9Z"/>
    <path class="cls-1" d="M46.91,53.23v3l1.48,0a4,4,0,0,0,1.32-.16,1.43,1.43,0,0,0,.64-.54,1.52,1.52,0,0,0,.24-.83,1.49,1.49,0,0,0-.24-.82,1.26,1.26,0,0,0-.63-.52,3.55,3.55,0,0,0-1.26-.16ZM46,52.35h1.73a10,10,0,0,1,2,.13,2.2,2.2,0,0,1,1.23.77,2.32,2.32,0,0,1,.47,1.47A2.37,2.37,0,0,1,51,56.2a2.24,2.24,0,0,1-1.27.77,10.44,10.44,0,0,1-2.2.16h-.63v4.13H46Z"/>
    <polygon class="cls-1" points="54.42 52.35 59.38 52.35 59.38 53.23 55.28 53.23 55.28 56.02 59.34 56.02 59.34 56.89 55.28 56.89 55.28 60.38 59.34 60.38 59.34 61.26 54.42 61.26 54.42 52.35"/>
    <path class="cls-1" d="M65.49,54.23,64,57.48h3Zm.12-1.88,4,8.9H68.7l-1.35-2.91H63.6l-1.33,2.91h-1l4.09-8.9Z"/>
    <polygon class="cls-1" points="72.17 52.35 73.02 52.35 73.02 55.7 76.51 52.35 77.69 52.35 73.5 56.35 78 61.26 76.84 61.26 73.02 57.12 73.02 61.26 72.17 61.26 72.17 52.35"/>
    <polygon class="cls-1" points="80.51 52.35 85.47 52.35 85.47 53.23 81.38 53.23 81.38 56.02 85.43 56.02 85.43 56.89 81.38 56.89 81.38 60.38 85.43 60.38 85.43 61.26 80.51 61.26 80.51 52.35"/>
    <path class="cls-1" d="M93.59,57v3.41h1.07a3.82,3.82,0,0,0,1.39-.19,1.6,1.6,0,0,0,.72-.6,1.5,1.5,0,0,0,.26-.87,1.6,1.6,0,0,0-.36-1,2,2,0,0,0-1-.61A7.3,7.3,0,0,0,94.08,57Zm0-3.73v2.85h.5a3.83,3.83,0,0,0,1.33-.18,1.36,1.36,0,0,0,.67-.54,1.46,1.46,0,0,0,.25-.82,1.18,1.18,0,0,0-.43-1,2,2,0,0,0-1.32-.35Zm-.86-.87h1.71a4,4,0,0,1,1.59.26,1.89,1.89,0,0,1,.88.77,2.18,2.18,0,0,1,.32,1.16,2.12,2.12,0,0,1-.28,1.08,2.15,2.15,0,0,1-.82.78,3.2,3.2,0,0,1,1,.55,2.12,2.12,0,0,1,.56.77,2.36,2.36,0,0,1,.2,1,2.41,2.41,0,0,1-.76,1.81,2.79,2.79,0,0,1-2.05.75H92.73Z"/>
    <path class="cls-1" d="M104.25,54.23l-1.49,3.24h3Zm.11-1.88,4,8.9h-.94l-1.35-2.91h-3.75L101,61.26h-1l4.09-8.9Z"/>
    <polygon class="cls-1" points="108.8 52.35 109.79 52.35 112.01 56.05 114.21 52.35 115.19 52.35 112.45 57 112.45 61.26 111.59 61.26 111.59 57 108.8 52.35"/>
    <path class="cls-1" d="M130.37,54l-.68.53A3.79,3.79,0,0,0,126.62,53a3.7,3.7,0,0,0-1.91.52,3.49,3.49,0,0,0-1.36,1.36,3.88,3.88,0,0,0-.49,1.94,3.7,3.7,0,0,0,3.81,3.8,3.8,3.8,0,0,0,3-1.46l.68.53a4.49,4.49,0,0,1-1.6,1.32,5.07,5.07,0,0,1-2.16.45A4.43,4.43,0,0,1,123,59.92,4.76,4.76,0,0,1,122,56.76a4.53,4.53,0,0,1,4.65-4.62,4.88,4.88,0,0,1,2.18.49A4.15,4.15,0,0,1,130.37,54"/>
    <path class="cls-1" d="M136.76,54.23l-1.48,3.24h3Zm.12-1.88,4,8.9H140l-1.34-2.91h-3.76l-1.33,2.91h-1l4.08-8.9Z"/>
    <polygon class="cls-1" points="143.46 61.26 143.46 52.35 143.66 52.35 149.4 59.17 149.4 52.35 150.25 52.35 150.25 61.26 150.06 61.26 144.36 54.53 144.36 61.26 143.46 61.26"/>
    <path class="cls-1" d="M154.38,60.41h1a8.75,8.75,0,0,0,2.49-.23A2.89,2.89,0,0,0,159.42,59a3.67,3.67,0,0,0,.57-2.07,3.94,3.94,0,0,0-.61-2.2,3,3,0,0,0-1.69-1.25,9.62,9.62,0,0,0-2.68-.26h-.62Zm-.83.85v-8.9h1.81a9.08,9.08,0,0,1,2.81.32,3.82,3.82,0,0,1,2,1.58,5.25,5.25,0,0,1,.15,5,3.74,3.74,0,0,1-1.47,1.5,5.34,5.34,0,0,1-2.52.49Z"/>
    <polygon class="cls-1" points="163.72 52.35 164.58 52.35 164.58 60.38 167.92 60.38 167.92 61.26 163.72 61.26 163.72 52.35"/>
    <polygon class="cls-1" points="170.51 52.35 175.47 52.35 175.47 53.23 171.38 53.23 171.38 56.02 175.43 56.02 175.43 56.89 171.38 56.89 171.38 60.38 175.43 60.38 175.43 61.26 170.51 61.26 170.51 52.35"/>
  </g>
</svg>
