<svg id="color" xmlns="http://www.w3.org/2000/svg" viewBox="0 0 137 100"><defs><style>.cls-1{fill:#0a77be;}.cls-2{fill:#0eb0e6;}.cls-3{fill:#0c4e97;}.cls-4{fill:#fff;}</style></defs><title>color_aero</title><path class="cls-1" d="M12.73,70.58H124.27A12.76,12.76,0,0,0,137,57.85V37.44a12.76,12.76,0,0,0-12.73-12.73H12.73A12.76,12.76,0,0,0,0,37.44V57.85A12.76,12.76,0,0,0,12.73,70.58Z"/><path class="cls-2" d="M12.73,70.58H120.85a12.76,12.76,0,0,0,12.73-12.73v-19a12.76,12.76,0,0,0-12.73-12.73H12.73A12.76,12.76,0,0,0,0,38.81v19A12.76,12.76,0,0,0,12.73,70.58Z"/><path class="cls-3" d="M12.73,70.58h99.34A12.76,12.76,0,0,0,124.8,57.85V41.7A12.76,12.76,0,0,0,112.07,29H12.73A12.76,12.76,0,0,0,0,41.7V57.85A12.76,12.76,0,0,0,12.73,70.58Z"/><path class="cls-2" d="M76.11,42.48a.63.63,0,0,1-.71-.71v-2H75a.21.21,0,0,1-.21-.21.2.2,0,0,1,.21-.2h.36v-.64a.25.25,0,0,1,.26-.23.24.24,0,0,1,.24.23v.64h.48a.21.21,0,0,1,.21.21.2.2,0,0,1-.21.2h-.48v1.88c0,.23.11.39.33.39s.19,0,.26,0a.21.21,0,0,1,.21.19c0,.2-.3.27-.59.27Z"/><path class="cls-2" d="M79.52,42.44a.24.24,0,0,1-.25-.23v-1.8c0-.53-.29-.69-.72-.69a1.28,1.28,0,0,0-.95.47v2a.25.25,0,0,1-.5,0V38.42a.25.25,0,0,1,.26-.23.24.24,0,0,1,.24.23v1.4a1.63,1.63,0,0,1,1.15-.51c.67,0,1,.31,1,1v1.94a.24.24,0,0,1-.25.23Z"/><path class="cls-2" d="M82,39.69a1,1,0,0,0-1,1H83a1,1,0,0,0-1.05-1ZM83.23,41H80.92a1.1,1.1,0,0,0,1.15,1,1.44,1.44,0,0,0,.86-.28.23.23,0,0,1,.11,0,.2.2,0,0,1,.2.19c0,.33-.83.51-1.22.51A1.59,1.59,0,1,1,82,39.3a1.45,1.45,0,0,1,1.48,1.17,1.56,1.56,0,0,1,0,.31.27.27,0,0,1-.27.26Z"/><path class="cls-2" d="M87.08,39.72a1.17,1.17,0,1,0,1.06,1.16,1.08,1.08,0,0,0-1.06-1.16Zm0,2.75a1.59,1.59,0,1,1,1.58-1.59,1.53,1.53,0,0,1-1.58,1.59Z"/><path class="cls-2" d="M90.65,39.8a1.08,1.08,0,0,0-.85.46v1.95a.24.24,0,0,1-.25.23h0a.24.24,0,0,1-.24-.23V39.57a.25.25,0,0,1,.26-.23.24.24,0,0,1,.24.23v.3a1.25,1.25,0,0,1,.88-.54.22.22,0,0,1,.22.22.26.26,0,0,1-.26.26Z"/><path class="cls-2" d="M91.58,42.44a.24.24,0,0,1-.25-.23V39.57a.25.25,0,0,1,.26-.23.24.24,0,0,1,.24.23v2.64a.24.24,0,0,1-.25.23Zm.34-3.81a.34.34,0,1,1-.34-.32.33.33,0,0,1,.34.32Z"/><path class="cls-2" d="M94.95,40.21a1.2,1.2,0,0,0-1-.49A1.16,1.16,0,0,0,94,42a1.2,1.2,0,0,0,1-.49V40.21Zm-1,3.42a1.78,1.78,0,0,1-1.2-.36.2.2,0,0,1-.07-.16A.23.23,0,0,1,93,43a1.32,1.32,0,0,0,.91.29c.53,0,1-.24,1-.91V41.9a1.36,1.36,0,0,1-1.07.54,1.58,1.58,0,0,1,0-3.14,1.35,1.35,0,0,1,1.07.53v-.27a.24.24,0,0,1,.26-.23.24.24,0,0,1,.24.23v2.75c0,1-.74,1.31-1.52,1.31Z"/><path class="cls-2" d="M96.51,42.44a.24.24,0,0,1-.25-.23V39.57a.25.25,0,0,1,.26-.23.24.24,0,0,1,.24.23v2.64a.24.24,0,0,1-.25.23Zm.34-3.81a.34.34,0,1,1-.34-.32.33.33,0,0,1,.34.32Z"/><path class="cls-2" d="M100,42.44a.24.24,0,0,1-.24-.23V40.42c0-.53-.29-.7-.72-.7a1.26,1.26,0,0,0-.95.47v2a.25.25,0,0,1-.5,0V39.57a.25.25,0,0,1,.26-.23.24.24,0,0,1,.24.23v.25a1.62,1.62,0,0,1,1.14-.51c.67,0,1,.32,1,1v1.93a.24.24,0,0,1-.25.23Z"/><path class="cls-2" d="M103,41.19a1.1,1.1,0,0,0-.88-.38.67.67,0,1,0,0,1.32,1.1,1.1,0,0,0,.88-.38v-.57Zm.25,1.25a.24.24,0,0,1-.25-.24v-.14a1.42,1.42,0,0,1-1.06.42,1,1,0,0,1-1.12-1,1,1,0,0,1,1.12-1,1.38,1.38,0,0,1,1.06.41v-.54c0-.41-.34-.64-.81-.64a1.3,1.3,0,0,0-.84.29.23.23,0,0,1-.14.05.21.21,0,0,1-.22-.19.17.17,0,0,1,.07-.14,1.77,1.77,0,0,1,1.19-.42c.68,0,1.24.29,1.24,1v1.88a.24.24,0,0,1-.25.23Z"/><path class="cls-2" d="M104.56,42.44a.24.24,0,0,1-.25-.23V38.42a.25.25,0,0,1,.26-.23.24.24,0,0,1,.24.23v3.79a.24.24,0,0,1-.25.23Z"/><path class="cls-4" d="M116.25,40.43h-.62v.84h.62a.42.42,0,0,0,0-.84Zm.14,1.1.47.71a.13.13,0,0,1,0,.07.18.18,0,0,1-.17.17.16.16,0,0,1-.12-.06l-.57-.87h-.41v.81a.15.15,0,0,1-.16.14.14.14,0,0,1-.14-.14V40.42a.25.25,0,0,1,.25-.25h.67a.69.69,0,0,1,.72.69.66.66,0,0,1-.58.67Zm-.31-1.93a1.71,1.71,0,1,0,1.7,1.7,1.7,1.7,0,0,0-1.7-1.7Zm0,3.67a2,2,0,1,1,2-2,2,2,0,0,1-2,2Z"/><path class="cls-4" d="M17.16,58.07c-1,0-3.37-.69-3.37-2.88s1.88-3,4.08-3a17.43,17.43,0,0,1,4.35.53,6.42,6.42,0,0,1-.55,3.27,5.34,5.34,0,0,1-4.51,2.13Zm1.28-13.57c-2.17,0-3.33-.11-5.31,1.22a.77.77,0,0,0-.31.67c0,.55.48,1.19,1,1.06a3.2,3.2,0,0,0,.66-.24,8.79,8.79,0,0,1,3.65-.73c2.2,0,4.09,1.13,4.09,3.11v1.24a24,24,0,0,0-5.38-.38c-2.57.22-5.2,1.34-5.2,4.63S14.36,60,16.94,60a7.51,7.51,0,0,0,5.33-2.25v.88a1.07,1.07,0,0,0,1,1.19,1,1,0,0,0,1-1.13V49.46c0-3.57-2.67-5-5.87-5Z"/><path class="cls-4" d="M28.65,51.28c.12-2.26,1.65-4.91,4.74-4.91s4.38,2.72,4.41,4.91Zm4.77-6.81c-4.14,0-7.14,3.45-7.14,7.72,0,4.61,3.09,7.75,7.38,7.75,2.23,0,5.79-1.43,5.79-3a1,1,0,0,0-.9-.95,1,1,0,0,0-.51.15,7.52,7.52,0,0,1-4.17,1.8,5,5,0,0,1-5.22-5H38.89a1.25,1.25,0,0,0,1.23-1.25,8.13,8.13,0,0,0-.21-1.53c-.75-3.39-2.89-5.71-6.49-5.71Z"/><path class="cls-4" d="M49.54,44.48c-2.28,0-4.17,2.19-5.06,3.33V45.58a1.1,1.1,0,0,0-1.08-1.08,1,1,0,0,0-1.08,1.08l-.14,13.08a1.13,1.13,0,0,0,1.11,1.11h0a1.15,1.15,0,0,0,1.17-1.11V52.83c0-3.27,3.4-6,4.91-6.09a1.24,1.24,0,0,0,1.2-1.23,1,1,0,0,0-1-1Z"/><path class="cls-4" d="M57.69,57.91c-3.23,0-5.05-2.68-5.05-5.7s1.82-5.67,5.05-5.67,5,2.68,5,5.67-1.79,5.7-5,5.7Zm0-13.4c-4.61,0-7.5,3.44-7.5,7.71S53.08,60,57.69,60s7.5-3.47,7.5-7.74-2.89-7.71-7.5-7.71Z"/><path class="cls-4" d="M74.46,58.39a6,6,0,0,1-5.85-4.92l0-2.19a6,6,0,0,1,5.87-5C77.75,46.24,80,49,80,52.31s-2.2,6.08-5.49,6.08Zm0-13.59a7.35,7.35,0,0,0-5.9,3l-.07-8.41a.72.72,0,0,0-1.44,0l.15,19.67a.72.72,0,0,0,.72.71h0a.72.72,0,0,0,.71-.73V56.93a7.35,7.35,0,0,0,5.82,2.89c4.08,0,6.93-3.37,6.93-7.52s-2.85-7.52-6.93-7.52Z"/><path class="cls-4" d="M105.79,58.39c-3.29,0-5.49-2.73-5.49-6.08s2.2-6.08,5.49-6.08a6,6,0,0,1,5.87,5l0,2.17a6,6,0,0,1-5.85,4.94Zm7.4-19a.72.72,0,0,0-.71-.73h0a.72.72,0,0,0-.72.71l-.07,8.41a7.35,7.35,0,0,0-5.9-3c-4.08,0-6.93,3.37-6.93,7.52s2.85,7.52,6.93,7.52a7.35,7.35,0,0,0,5.83-2.9V58.8a.72.72,0,0,0,.71.73h0a.72.72,0,0,0,.72-.71l.15-19.42Z"/><path class="cls-4" d="M90.07,46c-2.92,0-5.1,2.28-5.38,5.51l10.38-.08c-.22-2.8-1.79-5.43-5-5.43Zm.47,13.85a7.48,7.48,0,0,1-7.29-7.63c0-4.35,2.93-7.63,6.82-7.63s6.44,3,6.44,7.54v.7L84.7,52.9a6,6,0,0,0,5.84,5.52,5.68,5.68,0,0,0,4.23-1.91.71.71,0,0,1,1,1,7.08,7.08,0,0,1-5.28,2.37Z"/></svg>