<svg id="color" xmlns="http://www.w3.org/2000/svg" xmlns:xlink="http://www.w3.org/1999/xlink" width="131" height="100" viewBox="0 0 131 100">
  <defs>
    <style>
      .cls-1 {
        fill: none;
      }

      .cls-2 {
        fill: #e31e30;
      }

      .cls-3 {
        clip-path: url(#clip-path);
      }
    </style>
    <clipPath id="clip-path">
      <rect class="cls-1" y="28.59" width="131.19" height="39.18"/>
    </clipPath>
  </defs>
  <title>color_aprica</title>
  <g>
    <polygon class="cls-2" points="70.18 36.15 77.81 36.15 77.81 28.59 70.18 28.59 70.18 36.15 70.18 36.15"/>
    <path class="cls-2" d="M54.36,38.23V60.71H62V48.91c0-4.14,3-5.7,7-4V38.23Z"/>
    <g class="cls-3">
      <polygon class="cls-2" points="70.18 60.71 77.81 60.71 77.81 38.23 70.18 38.23 70.18 60.71 70.18 60.71"/>
      <path class="cls-2" d="M19.82,49.87l-3.42-8.43h-.16l-3.42,8.43Zm33.49-.08c0,7-4.33,10.92-9.47,10.92H37.42v7.07H29.79V60.71H24.06l-2-4.82H10.54l-2,4.82H0L12.28,33.57h8.24l9.26,20.19V38.23H41c7.31,0,12.29,2.76,12.29,11.56M41.25,56.24c3.11,0,4.51-3,4.51-6.66s-1.4-6.66-4.51-6.66-4.43,3-4.43,6.66,1.32,6.66,4.43,6.66"/>
    </g>
    <path class="cls-2" d="M115.72,53.08c0,1.66-1.1,3.4-3.93,3.4-1.82,0-3.32-.91-3.37-2.35-.07-2,1.36-2.62,3.56-2.89l3.75-.16v2Zm0-6.29-5.11.05c-7.09.12-9.12,2.87-9.69,5.14H94.25c-.2,2.49-.92,4.25-3.31,4.25-3.11,0-4.43-3-4.43-6.66s1.32-7,4.43-7c2,0,2.85,1.4,3.17,3.4h14.81c.33-2,.95-3.56,3.62-3.56,2.25,0,3.19,1.42,3.19,3.4v1m-3.11-9.13c-7,0-10,2.79-11.1,6.81-1.11-4-4.11-6.81-11.1-6.81-8,0-11.68,5.29-11.68,11.81s3.68,11.81,11.68,11.81c6.2,0,9.21-2.07,10.6-5.21.87,2.84,3.56,4.64,7.06,4.64h15V45.54c0-3.42-2.47-7.88-10.47-7.88"/>
    <path class="cls-2" d="M127.13,56.26v0Zm.15,1.06h.39a1.7,1.7,0,0,0,.85-.18.47.47,0,0,0,.28-.43.34.34,0,0,0-.18-.32,1.36,1.36,0,0,0-.68-.13h-.66v1.06Zm2.27,2.25h-.68l-.24-1a.89.89,0,0,0-.3-.52,1,1,0,0,0-.62-.16h-.44v1.66h-.81V55.65h1.45a2.67,2.67,0,0,1,1.2.23.86.86,0,0,1,.51.8.91.91,0,0,1-.32.69,1.48,1.48,0,0,1-.44.26.87.87,0,0,1,.18.12,1.18,1.18,0,0,1,.33.56l.37,1.27Z"/>
    <path class="cls-2" d="M125.32,57.61a2.79,2.79,0,1,0,2.79-2.79,2.79,2.79,0,0,0-2.79,2.79m-.3,0a3.09,3.09,0,1,1,3.09,3.09A3.09,3.09,0,0,1,125,57.61"/>
  </g>
</svg>
