<svg id="color" xmlns="http://www.w3.org/2000/svg" xmlns:xlink="http://www.w3.org/1999/xlink" width="164" height="100" viewBox="0 0 164 100">
  <defs>
    <style>
      .cls-1 {
        fill: none;
      }

      .cls-2 {
        clip-path: url(#clip-path);
      }

      .cls-3 {
        fill: #010101;
        fill-rule: evenodd;
      }
    </style>
    <clipPath id="clip-path">
      <rect class="cls-1" y="36.18" width="164.03" height="25.02"/>
    </clipPath>
  </defs>
  <title>color_calphalon</title>
  <g>
    <g class="cls-2">
      <path class="cls-3" d="M106.81,45v1.54l.23,0,.23,0,.1,0,.1,0,.1,0,.09,0,.08,0,.07.06.07.05.05.07L108,47l0,.07,0,.08v7.63l-1.24.18v1.75h6.89V55l-.82-.18v-7.6l0-.11,0-.1.05-.11.06-.09.07-.09.08-.08.09-.08.09-.07.1-.06.11-.05.1-.05.11,0,.12,0h.45l.2,0,.18,0,.16.05.14.07.13.07.11.1.09.1.09.12.07.13.05.14.05.15,0,.17,0,.18v7.22l-.82.18v1.75h6.9V55l-1.25-.18v-7.5l0-.25,0-.24,0-.24,0-.22-.05-.22-.06-.21-.07-.19-.08-.18-.09-.17-.09-.16-.1-.16-.11-.15-.11-.14-.13-.13-.13-.12-.13-.12-.15-.1-.15-.1-.15-.1-.16-.08-.17-.08-.17-.07-.18-.06-.18-.05-.19-.05-.2,0-.21,0-.21,0-.21,0h-.71l-.28,0-.27,0-.27.06-.26.07-.25.09-.25.1-.25.11-.24.12-.23.14-.23.15-.22.15-.21.17-.22.17-.21.19-.21.19-.39-1.84L106.81,45ZM99,45.31h.14l.12,0,.12.05.11.05.1.07.1.09.09.1.08.11.07.12.07.13.06.15.06.15.05.16.05.17,0,.18,0,.18.07.39,0,.41,0,.42,0,.42,0,.83v1.8l0,.94,0,.44,0,.41,0,.39-.07.36,0,.16,0,.15-.05.14-.05.14-.06.12-.06.12-.07.11-.07.09-.08.09-.09.07-.1.07-.1.05-.11.05-.12,0h-.52l-.12,0-.11-.05-.1-.05-.1-.07-.09-.07L98.1,55,98,54.88,98,54.77l-.06-.12-.06-.12-.05-.14-.05-.14,0-.15,0-.16-.07-.36,0-.39,0-.41,0-.44,0-.94v-1.8l0-.83,0-.42,0-.42,0-.41.07-.39,0-.18,0-.18.05-.17.05-.16.06-.15.06-.15L98,46l.07-.12.08-.11.09-.1.1-.09.1-.07.11-.05.12-.05.12,0Zm0-1.75h-.35l-.35,0-.34,0-.34.05-.33.07-.32.08-.32.09-.3.11-.3.12-.29.14-.28.14-.27.16L95,44.8l-.25.18-.24.21-.23.22-.22.23-.21.24-.18.26-.18.26-.16.28-.15.28-.14.3-.12.31-.11.31-.1.33-.08.34-.07.34-.05.36,0,.36,0,.38v.76l0,.38,0,.36.05.36.07.35.08.34.1.32.11.32.12.31.14.3.15.29.16.27.18.27.18.26L94,55l.22.23.23.22.24.21.25.18.26.18.27.16.28.14.29.14.3.12.3.11.32.09.32.08.33.07.34.05.34,0,.35,0h.71l.35,0,.34,0,.34-.05.33-.07.32-.08.32-.09.3-.11.3-.12.29-.13.28-.15.27-.16.26-.17.25-.19.24-.21.23-.22.22-.23.21-.24.18-.25.18-.27.16-.27.15-.29.14-.3.12-.31.11-.31.1-.33.08-.34.07-.34.05-.36,0-.36,0-.37V50l0-.38,0-.36-.05-.36-.07-.35-.08-.33-.1-.33-.11-.32-.12-.31-.14-.3-.15-.29-.16-.27-.18-.27-.18-.25-.21-.25-.22-.23-.23-.22-.24-.21L103,44.8l-.26-.18-.27-.16-.28-.14-.29-.14-.3-.12-.3-.11-.32-.09-.32-.08-.33-.07-.34-.05-.34,0-.35,0ZM91.92,56.75V55l-1.25-.18V36.54l-6.07,1.3v1.54l.24,0,.22,0,.11,0,.1,0,.09,0,.09.05.09,0,.07.05.07.06.05.07.05.07,0,.07,0,.08V54.81L84.6,55v1.75ZM77.2,53.56v.1l0,.1,0,.09-.05.08L77,54l-.07.07-.08.07-.09.06-.09.05-.1.05-.1,0-.1,0-.1,0-.11,0h-.37l-.08,0-.07,0-.07,0-.07,0-.06,0-.06,0-.06,0-.05-.06-.05-.05,0-.06-.09-.12L75,53.78l-.06-.15-.05-.15,0-.16,0-.15,0-.16,0-.16v-.57l0-.26.05-.25.06-.24,0-.11,0-.1,0-.11.06-.1.05-.1.06-.09.07-.09.07-.09.07-.09.08-.08.09-.08.09-.07.09-.07.1-.07.11-.06.11-.07.11-.05.12-.06.13-.05.13,0,.14-.05.14,0,.15,0,.15,0v3.81ZM82,49.9v-.46L82,49l-.06-.42-.08-.4-.1-.38-.13-.36-.14-.34-.15-.33-.18-.3-.19-.29-.22-.27-.23-.25-.25-.24L80,45.22l-.27-.2-.28-.18-.3-.17-.3-.15-.31-.14-.32-.12-.32-.12-.33-.1-.33-.09-.34-.08-.34-.06-.35-.06-.34-.05-.35,0-.34,0-.34,0h-1l-.33,0-.33,0-.32,0-.16,0-.15,0-.16,0-.14,0-.15.05-.14.06L71.8,44l-.13.07-.13.07-.12.08-.12.08-.11.09-.1.1-.1.1-.09.12-.08.12-.07.12-.07.14-.06.14,0,.16,0,.16,0,.17v.6l0,.11,0,.1,0,.1,0,.09,0,.09,0,.09.05.08.05.08.05.08.06.07.07.06.06.07.08.06.07.05.16.11.17.08.18.08.18.06.21,0,.21,0,.21,0H73l.12,0,.12,0,.12,0,.11,0,.12-.05.1,0,.11-.06.1-.06.1-.06.1-.07.09-.08.09-.08.09-.08.08-.09.15-.18.15-.21.12-.22L75,46.3l.1-.24.08-.25.08-.25.05-.26.12,0,.11,0,.11,0,.11,0,.1.05.09.05.1.05.08.06.09.07.07.07.08.08.07.07.13.17.12.19.1.19.08.22.08.22.06.22.05.23,0,.24,0,.23,0,.23-.59.11-.62.13-.63.14-.65.16-.32.09-.31.09-.32.11-.31.11-.31.11-.31.13-.29.13-.29.15-.28.15-.27.16-.26.18-.24.18-.24.21-.22.22-.19.23-.18.24-.16.26-.14.27-.13.29-.1.29-.09.32-.06.33,0,.35,0,.36v.21l0,.19,0,.18,0,.19,0,.17.05.17.06.17.08.16.07.16.09.15.1.14.1.14.11.13.11.13.13.12.13.11.13.11.14.1.15.1.15.09.16.08.16.08.16.07.17.06.18.05.17.05.18,0,.19,0,.18,0,.19,0h1l.28,0,.28,0L75,57l.26-.05.26-.06.25-.08.25-.08.24-.1.24-.11.24-.12.24-.14.23-.15.23-.17.24-.18.09.16.1.15.12.14.12.13.13.12.14.11.15.1.15.09.16.08.17.07.16.06.18.05.17,0,.18,0h.83l.24,0,.24,0,.23,0,.24,0,.23-.05.23-.06.22-.07.22-.08.22-.09.21-.1L83,56.4l.19-.12.19-.13.17-.14L83,54.56l0,0-.05,0-.05,0-.06,0H82.4l-.08,0-.08,0-.07,0-.06-.06-.05-.07v0l0-.05V49.9ZM53.85,37.84v1.54l.24,0,.22,0,.11,0,.1,0,.09,0,.09.05.09,0,.07.05.07.06.05.07.05.07,0,.07,0,.08V54.81L53.85,55v1.75h6.9V55l-.83-.18v-7.6l0-.11,0-.1.05-.11.06-.09.07-.09.08-.08.09-.08.09-.07.1-.06.1-.05.11-.05.11,0,.12,0h.45l.19,0,.18,0,.16.05.14.07.13.07.11.1.09.1.09.12.07.13.05.14.05.15,0,.17,0,.18v7.22L62,55v1.75h6.89V55l-1.24-.18V47.12l0-.19,0-.18,0-.19-.05-.18-.06-.17L67.33,46l-.08-.17-.09-.16-.09-.17-.1-.15-.11-.15L66.73,45l-.12-.14-.13-.14-.14-.12-.14-.13L66,44.37l-.15-.11-.16-.1-.17-.1L65.37,44l-.18-.08L65,43.81l-.19-.06-.19-.05-.21-.05-.21,0-.21,0h-.73l-.28,0-.27,0-.25,0-.25.06-.24.07-.23.07-.23.09-.22.09-.21.1-.2.11-.2.11-.4.25-.4.26V36.54l-6.07,1.3Zm-7.9,8.48.14-.05.14,0h.41l.16,0,.15,0,.14.05.13.07.12.07.11.09.11.1.09.11.09.12.09.13.07.14.07.14.07.16.05.17.06.17,0,.19,0,.18,0,.21,0,.21.05.43,0,.45,0,.46v1.78l0,.34,0,.35,0,.34,0,.34-.05.33-.07.31-.08.3-.05.14-.05.13-.05.13-.06.12-.06.11-.06.11-.07.09-.08.09-.07.08-.09.07-.09.07-.09.05-.1,0-.1,0h-.46l-.07,0-.07,0-.05,0-.06,0-.05,0-.05,0,0-.05,0-.05,0-.06-.07-.13-.05-.16,0-.18,0-.21,0-.24V53.8l0-.59V46.32Zm1.24,13.12-1.24-.18V56.69l.23.1.22.08.21.07.22.06L47,57l.22,0,.22,0H48l.36,0,.35-.05.33-.07.32-.09.3-.1.3-.13.28-.13.26-.16.26-.17L51,56l.23-.21.22-.22.2-.23.18-.24.18-.26.15-.27.15-.27.14-.29.13-.29.11-.31.1-.31.1-.32.08-.32.07-.33.07-.33.05-.34,0-.35,0-.34,0-.35V49.2l0-.27,0-.28,0-.28,0-.27,0-.28-.06-.27L53,47.3,52.93,47l-.08-.26-.09-.25-.1-.26L52.54,46l-.12-.24-.13-.23-.14-.22L52,45.15,51.83,45l-.17-.19-.18-.17-.19-.16-.19-.15-.22-.14L50.64,44l-.25-.11-.25-.09-.26-.08-.28-.06-.29-.05-.3,0H48.5l-.23,0-.22,0-.22,0-.21.05-.21.06-.2.08-.2.08-.18.1-.18.11-.17.12-.17.13-.16.15-.15.15-.15.17-.13.18-.06-.22-.07-.21-.07-.21-.07-.19-.08-.18-.09-.17-.1-.17L45,43.56l-5.17,1.65v1.54l.23,0,.23,0,.1,0,.1,0,.1,0,.09,0,.08.05.07.05.07.06.05.06.05.07,0,.08,0,.08V59.26l-1.24.18V61.2h7.31V59.44ZM39,56.75V55l-1.25-.18V36.54l-6.07,1.3v1.54l.24,0,.22,0,.11,0,.1,0,.09,0,.09.05.09,0,.07.05.07.06.05.07.05.07,0,.07,0,.08V54.81L31.65,55v1.75ZM24,53.56v.1l0,.1,0,.09-.05.08-.06.08-.07.07-.08.07-.09.06-.09.05-.1.05-.1,0-.1,0-.1,0-.11,0h-.37l-.08,0-.08,0-.06,0-.07,0-.06,0-.06,0-.06,0L22,54.16,22,54.11l0-.06-.09-.12-.07-.14-.06-.15-.05-.15,0-.16,0-.15,0-.16,0-.16v-.57l0-.26,0-.12,0-.12,0-.11,0-.12,0-.11,0-.1,0-.11.06-.1.05-.1.06-.09.07-.09.07-.09.07-.09.08-.08.09-.08.09-.07.09-.07.1-.07.11-.06.11-.07.11-.05.12-.06.13-.05.13,0,.14-.05.14,0,.15,0,.15,0v3.81ZM28.8,49.9v-.46l0-.44-.06-.42-.08-.4-.1-.38-.13-.36-.14-.34-.16-.33-.17-.3-.19-.29-.22-.27-.23-.25L27,45.44l-.26-.22-.27-.2-.28-.18-.3-.17-.3-.15-.31-.14L25,44.24l-.32-.12-.33-.1L24,43.92l-.34-.08-.34-.06L23,43.71l-.34-.05-.35,0-.34,0-.34,0h-1l-.33,0-.33,0-.32,0-.16,0-.15,0-.16,0-.14,0-.15.05-.14.06-.14.05-.13.07-.13.07-.12.08-.12.08-.11.09-.1.1-.1.1-.09.12-.08.12-.08.12-.06.14-.06.14,0,.16,0,.16,0,.17v.6l0,.11,0,.1,0,.1,0,.09,0,.09,0,.09.05.08.05.08.05.08.06.07.07.06.06.07.07.06.08.05.16.11.17.08.18.08.18.06.21,0,.21,0,.2,0h.48l.12,0,.12,0,.12,0,.11,0,.12-.05.1,0,.11-.06.1-.06.1-.06.1-.07.09-.08L21,47.3l.09-.08.08-.09.15-.18.15-.21.12-.22.12-.23.1-.24.08-.25.08-.25.05-.26.12,0,.11,0,.11,0,.11,0,.1.05.09.05.1.05.08.06.09.07.07.07.08.08.07.07.13.17.12.19.1.19.08.22.08.22.06.22.05.23,0,.24,0,.23,0,.23-.59.11-.62.13-.63.14-.65.16-.32.09-.31.09-.32.11-.31.11-.31.11-.3.13-.3.13-.29.15-.28.15-.27.16-.26.18-.24.18-.24.21-.22.22-.19.23-.18.24-.16.26-.14.27-.13.29-.1.29-.09.32-.06.33,0,.35,0,.36v.21l0,.19,0,.18,0,.19,0,.17.05.17.06.17.08.16.07.16.09.15.1.14.1.14.11.13.11.13.13.12.13.11.13.11.14.1.15.1.15.09.16.08.16.08.16.07.17.06.18.05.17.05.18,0,.19,0,.18,0,.19,0h1l.28,0,.28,0,.27,0,.26-.05.26-.06.25-.08.25-.08.24-.1.24-.11.24-.12.24-.14.23-.15.23-.17.24-.18.09.16.1.15.12.14.12.13.13.12.14.11.15.1.15.09.16.08.17.07L26,57l.18.05.17,0,.18,0h.83l.24,0,.24,0L28,57l.24,0,.23-.05.23-.06.22-.07.22-.08.22-.09.21-.1.2-.11.19-.12.18-.13.18-.14-.58-1.44,0,0-.05,0-.05,0-.06,0h-.36l-.08,0-.08,0-.07,0-.06-.06-.05-.07v0l0-.05V49.9ZM14.66,37.79l-.17.08-.25.11-.31.12-.34.12-.35.11-.34.09-.16,0-.14,0h-.34l-.11,0-.14,0-.15,0-.38-.12L11,38.16l-.25-.07L10.53,38,10.26,38,10,37.9l-.29-.05-.3,0-.31,0H8.27l-.48,0-.48.07L6.85,38l-.44.12L6,38.27l-.42.16-.41.18-.4.22-.38.24L4,39.32l-.36.28-.34.29L3,40.2l-.31.32-.3.35-.28.36-.26.37L1.59,42l-.24.4-.21.42L1,43.22l-.18.44-.15.44-.14.45L.35,45l-.1.47L.15,46l-.06.49L0,46.94l0,.49v.88l0,.38,0,.39.05.39.07.39.09.4.1.39.12.4.13.39.14.39.17.39.17.37.21.38.2.36.24.36L2,54l.27.34.28.32.29.3.31.3.32.27.34.26.35.24.37.23.38.19.4.17.41.14.43.13.44.09.45.08.47,0h.83l.33,0,.33,0,.33,0L9.65,57l.32-.06.31-.06.3-.08.3-.09.3-.1.29-.11.28-.11.28-.13.27-.14.26-.15.26-.16.25-.16.25-.18.23-.19.23-.19.23-.22.22-.22.2-.24.19-.24.18-.25.18-.26.17-.28.16-.28.15-.29.15-.29.13-.31.13-.32-1.59-1-.14.3-.16.29-.17.3-.19.29-.2.28-.23.27-.12.12-.11.13-.13.12-.12.11-.13.11-.13.1-.14.1-.13.1L12,53.6l-.15.08-.14.08-.15.07-.15.06-.16.06L11,54l-.15,0-.17,0-.16,0H10.2l-.35,0-.34-.05L9.2,54l-.31-.11-.28-.14-.27-.16-.25-.19-.23-.22-.22-.24-.19-.26-.18-.28-.17-.29L7,51.77l-.14-.32-.13-.34-.11-.34-.1-.35-.1-.36-.08-.36-.07-.37L6.13,49l-.05-.37L6,48.25l0-.36,0-.36,0-.35,0-.34,0-.34,0-.63V44.32l0-.49,0-.48,0-.25,0-.24,0-.23,0-.23.05-.23L6.17,42l.06-.21.06-.21.08-.19.08-.18L6.54,41l.1-.16.1-.15.11-.15L7,40.39l.13-.12.14-.11.15-.09L7.59,40l.17-.07L8,39.85l.19,0,.22,0h.47l.25,0,.24,0,.24,0,.23.06L10,40l.22.08.21.08.2.11.19.1.19.12.18.13.18.14.17.14.17.15.16.16.15.17.15.17.15.17.14.19.14.18.13.19.13.21.13.21.25.42.23.42.21.43.19.43,1.7-.45-1-6.22Z"/>
    </g>
    <path class="cls-3" d="M132.68,41.38l.18-.17L133,41l.18-.16.18-.15.19-.15.2-.15.2-.13.19-.14.21-.13.21-.12.22-.12.21-.11.21-.11.22-.1.22-.1.23-.09.23-.09.23-.08.23-.08.23-.07.24-.07.24-.06.23-.05.25-.05.24,0,.24,0,.25,0,.24,0,.25,0h1.27l.27,0,.26,0,.27,0,.26,0,.26.05.26.05.26.06.25.07.25.07.26.08.24.08.25.09.24.1.25.1-.31.28-.29.3-.28.3-.28.32-.26.32-.25.33-.25.34-.23.35-.22.36-.21.36L141,43l-.18.38-.16.38-.15.39-.14.4-.12.4h-9.81l.09-.25.1-.24.11-.25.11-.24.11-.24.12-.24.13-.23.14-.23.14-.23.14-.22.16-.22.15-.22.17-.21.17-.21.18-.19.18-.19Zm19.24-2.89h.74l.25,0,.25,0,.24,0,.25,0,.24,0,.24.05.24.05.23.06.24.07L155,39l.24.08.23.08.22.09.23.09.22.1.22.1.22.11.22.11.21.12.21.12.21.13.19.14.2.13.2.15.19.15.18.15.18.16.18.16.17.17.18.19.18.19.17.21.17.21.16.22.15.22.15.22.14.23.13.23.13.23.12.24.12.24.11.24.1.25.1.24.09.25h-9.8l-.11-.36-.12-.36-.13-.35-.14-.35-.15-.35-.17-.34-.17-.34-.18-.33-.2-.33-.22-.32-.22-.31-.24-.31-.24-.3-.26-.3-.26-.29-.27-.28-.1-.09-.1-.09-.11-.1-.1-.09.24-.1.25-.09.24-.09.25-.09.25-.07.25-.07.26-.07.26-.06.25-.05.27-.05.26,0,.26,0,.27,0,.26,0h.53ZM142.17,47l.06-.39.07-.4.09-.38.11-.39.12-.38.13-.37.15-.37.16-.36.18-.35.2-.35.21-.34.23-.33.24-.32.26-.32.27-.3.28-.3.22-.19.22-.17.22-.17.23-.16.21.16.23.17.22.17.21.19.28.3.27.3.26.32.24.32.23.33.22.34.2.35.17.35.16.36.15.37.14.37.11.38.11.39.09.38.07.4.06.39H164l0-.26,0-.26,0-.25,0-.26-.05-.25-.06-.26-.06-.25-.06-.25-.08-.25-.07-.25-.08-.24-.09-.24-.09-.24-.09-.24-.1-.24-.11-.24-.11-.23-.11-.23-.12-.23-.13-.22-.12-.23-.14-.22-.14-.22-.14-.21-.15-.22-.15-.21-.15-.19-.16-.21-.17-.19-.17-.19-.17-.19-.18-.18-.23-.22-.22-.2-.23-.19-.24-.19-.24-.19-.24-.17-.25-.17-.25-.17-.25-.16-.26-.15-.26-.15-.26-.14-.27-.13-.27-.13-.27-.12-.28-.11-.27-.11-.29-.1-.28-.09-.28-.09-.29-.08-.29-.07-.3-.07-.29-.06-.3-.05-.3-.05-.3,0-.3,0-.3,0-.3,0h-1l-.42,0-.41,0-.4.05-.4.06-.4.07-.39.09-.39.1-.38.11-.38.12-.37.13-.37.15-.36.15-.36.17-.35.18-.34.18-.35-.19-.35-.18-.36-.17-.37-.15L144,37l-.38-.13-.38-.12-.38-.11-.39-.1-.39-.08-.4-.07-.4-.06-.4-.05-.4,0-.41,0h-1l-.57,0-.57.07-.55.09-.55.12-.54.14-.53.16-.52.19-.5.2-.5.24-.48.27-.47.28-.46.3-.44.32-.43.34-.42.36-.39.37-.38.39-.37.41-.34.42-.33.44-.31.45-.28.47-.27.48-.25.49-.23.5-.19.52-.17.53-.15.53-.12.55-.1.55-.08.56Z"/>
    <path class="cls-3" d="M151.92,58.25h-.53l-.26,0-.27,0-.26,0-.26,0-.27,0-.25-.05-.26-.06-.26-.07-.25-.07-.25-.08-.25-.08-.24-.09-.25-.1-.24-.1.1-.09.11-.09.1-.09.1-.09.27-.29.26-.29.26-.29.24-.3.24-.31.22-.32.22-.32.2-.32.18-.33.17-.34.17-.34.15-.35.14-.35.13-.35.12-.36.11-.37h9.79l-.13.35-.15.35-.16.34-.17.33-.18.32-.19.32-.22.31-.22.3-.24.29-.24.28-.25.27-.27.27-.27.25-.28.25-.3.23-.29.23-.31.21-.32.21-.32.18-.33.17-.34.15-.34.15-.35.13-.36.12-.36.11-.37.1-.37.08-.38.06-.38.05-.39,0-.39,0Zm-12.25,0h-.74l-.25,0-.24,0-.25,0-.24,0-.24,0-.25-.05-.23-.06L137,57.9l-.24-.06-.23-.07-.23-.08-.23-.08-.23-.09-.23-.09-.22-.1-.22-.1L135,57.1l-.21-.11-.22-.12-.21-.12-.21-.13-.19-.14-.2-.13-.2-.15-.19-.15-.18-.15L133,55.7l-.17-.16-.18-.17-.18-.19-.18-.21-.17-.19-.17-.22-.15-.21-.16-.22-.14-.22-.14-.23-.14-.23-.13-.23L131,53l-.11-.24-.11-.24-.11-.25-.1-.25-.09-.25h9.8l.11.37.12.36.13.35.14.35.16.35.16.34.17.34.18.33.21.32.21.32.23.32.23.31.24.3.26.29.26.29.28.29.1.09.1.09.1.09.1.09-.24.1-.24.1-.24.09-.25.08-.25.08-.25.07L142,58l-.26.06-.26.06-.26,0-.26,0-.27,0-.26,0-.27,0h-.54Zm9.75-8.52,0,.24,0,.24,0,.24-.05.24-.06.23-.06.24-.07.23-.07.23-.08.22-.08.23-.09.22-.09.22-.1.21-.1.21-.11.21-.11.21-.12.21-.12.19-.12.19-.13.18-.13.18-.14.18-.14.18-.15.17L147,55l-.16.16-.16.17-.16.15-.16.16-.17.15-.17.15-.18.14-.21-.17-.22-.16-.22-.18-.22-.18-.28-.3-.27-.3-.26-.32-.24-.32-.23-.33-.21-.34-.2-.35-.18-.36-.16-.36-.15-.36-.13-.38-.12-.37-.11-.39-.09-.39-.07-.39-.06-.39H127.56l0,.26,0,.25,0,.26,0,.26.05.25.06.26.06.25.07.25L128,52l.07.24.08.25.09.24.09.24.1.24.1.24.1.23.11.24.11.23.12.23.13.22.13.23.13.22.14.22.14.21.15.2.15.22.16.19.16.21.16.19.17.19.18.18.18.19.22.21.22.22.24.19.23.19.24.18.24.18.25.17.25.17.25.16.26.15.26.15.26.13.27.14.27.13.27.12.28.11.28.11.28.1.28.09.29.09.29.08.29.07.29.07.29.06.3.05.3.05.3,0,.3,0,.3,0h.31l.3,0h.72l.41,0,.4,0,.4-.05.4-.06.4-.07.39-.08.39-.1.38-.11.38-.12.37-.13.38-.15.36-.15.36-.17.36-.18.35-.19.35.19.35.18.36.17.37.15.37.15.37.13.38.12.39.11.38.1.4.08.39.07.4.06.4.05.41,0,.4,0h.72l.31,0h.3l.3,0,.3,0,.3,0,.3-.05.3-.05.29-.06.3-.07.29-.07.29-.08.28-.09.28-.09.29-.1.27-.11.28-.11.27-.12.27-.13.27-.14.26-.13.26-.15.26-.15.25-.16.25-.17.25-.17.24-.18.24-.18.24-.19.23-.19.22-.22.23-.21.18-.19.17-.18.17-.19.17-.19.16-.21.15-.19.15-.22.15-.2.14-.21.14-.22.14-.22.12-.23.13-.22.12-.23.11-.23.11-.24.11-.23.1-.24.09-.24.09-.24.09-.24.08-.25.07-.24.08-.25.06-.25.06-.25.06-.26.05-.25,0-.26,0-.26,0-.25,0-.26Z"/>
    <path class="cls-3" d="M122,42V40.94h.84l.13,0,.12,0,.12.05,0,0,.05,0,0,0,0,.05,0,.05,0,.06v.32l0,.07,0,.06,0,.05,0,.05,0,0-.06,0-.06,0-.06,0H122Zm0,.44h.59l.9,1.49h.58l-1-1.51.09,0h.09l.08,0,.08,0,.08,0,.07,0,.07-.05.06-.05.05-.06.05-.06,0-.08,0-.07,0-.09,0-.09v-.45l0-.1,0-.1,0-.08-.05-.08-.06-.07-.07-.06-.08-.06-.08,0-.1,0-.11,0-.11,0-.13,0h-1.58v3.42H122V42.43Zm.63,2.74H123l.14,0,.14,0,.14,0,.14,0,.13,0,.13-.05.13-.06.13-.06.12-.07.12-.07.12-.08.11-.09.1-.08.11-.1.09-.1.1-.1L125,44l.09-.11.07-.12.08-.12.06-.13.06-.13.05-.13.05-.14,0-.14,0-.14,0-.15,0-.15v-.64l0-.14,0-.15,0-.14,0-.14-.05-.14L125.4,41l-.06-.13-.06-.12-.08-.13-.07-.11L125,40.4l-.08-.11-.1-.11-.09-.1-.11-.09-.1-.09-.11-.08-.12-.08-.12-.07-.12-.07-.13-.06-.13-.06-.13-.05-.13,0-.14,0-.14,0-.14,0-.14,0h-.6l-.15,0-.14,0-.14,0-.14,0-.14,0-.13.05-.13.06-.12.06-.13.07-.12.07-.11.08-.11.08-.11.09-.1.09-.1.1-.1.11-.08.11-.09.11-.07.11-.08.13-.06.12-.06.13-.06.13,0,.14,0,.14,0,.14,0,.15,0,.14v.64l0,.15,0,.15,0,.14,0,.14,0,.14.06.13.06.13.06.13.08.12.07.12.09.11.08.11.1.1.1.1.1.1.11.08.11.09.11.08.12.07.13.07.12.06.13.06.13.05.14,0,.14,0,.14,0,.14,0,.15,0h.3Zm-2.41-3v-.38l0-.13,0-.11,0-.12,0-.11,0-.11,0-.11.06-.1.05-.1.06-.1.07-.1.07-.09.07-.08.08-.08.08-.08.08-.08.09-.07.1-.06.09-.06.1-.06.1-.05.11-.05.1,0,.11,0,.12,0,.11,0,.12,0H123l.12,0,.11,0,.12,0,.1,0,.11,0,.11.05.1.05.09.06.1.06.09.06.09.07.08.08.08.08.08.08.08.08.06.09.07.1.06.1.06.1.05.1,0,.11,0,.11,0,.11,0,.12,0,.11,0,.13v.77l0,.12,0,.12,0,.12,0,.12,0,.11,0,.1-.05.11-.06.1-.06.1-.07.09-.06.09-.08.09-.08.08-.08.08-.08.08-.09.07-.09.06-.1.06-.09.06-.1.05-.11.05-.11,0-.1,0-.12,0-.11,0-.12,0-.12,0h-.49l-.12,0-.12,0-.11,0-.12,0-.11,0-.1,0-.11-.05-.1-.05-.1-.06-.09-.06-.1-.06-.09-.07-.08-.08-.08-.08-.08-.08-.07-.09-.07-.09-.07-.09-.06-.1-.05-.1-.06-.11,0-.1,0-.11,0-.12,0-.12,0-.12,0-.12V42.2Z"/>
  </g>
</svg>
