<svg id="color" xmlns="http://www.w3.org/2000/svg" xmlns:xlink="http://www.w3.org/1999/xlink" viewBox="0 0 162 100"><defs><style>.cls-1{fill:none;}.cls-2{clip-path:url(#clip-path);}.cls-3{fill:#231f20;}</style><clipPath id="clip-path"><rect class="cls-1" x="0.03" y="29.67" width="162.08" height="61.35"/></clipPath></defs><title>color_mrcoffee</title><g class="cls-2"><path class="cls-3" d="M155.54,51.22h.17c.19,0,.35-.06.35-.22s-.1-.23-.32-.23l-.19,0v.43Zm0,.86h-.35V50.57a3.07,3.07,0,0,1,.58,0,.94.94,0,0,1,.53.11.42.42,0,0,1,.15.33.39.39,0,0,1-.31.35v0a.45.45,0,0,1,.28.37,1.15,1.15,0,0,0,.11.38h-.38a1.28,1.28,0,0,1-.12-.37c0-.17-.12-.24-.31-.24h-.17v.61Zm-.93-.79a1.17,1.17,0,0,0,1.18,1.21,1.16,1.16,0,0,0,1.16-1.2,1.17,1.17,0,1,0-2.34,0Zm2.73,0a1.56,1.56,0,1,1-1.55-1.52,1.52,1.52,0,0,1,1.55,1.52Z"/><path class="cls-3" d="M95.36,53.71h.05c0-.27,0-.55,0-.82-.08-1.42-.13-2.84-.27-4.26a8.66,8.66,0,0,0-.49-2c-.22-.62-.64-.72-1.22-.4a.92.92,0,0,0-.27.19,8.42,8.42,0,0,0-.91,1.17,12.19,12.19,0,0,0-1.38,4.52,3.11,3.11,0,0,0,1.48,3.18,5.34,5.34,0,0,0,2.77.82c.23,0,.29,0,.29-.26,0-.71,0-1.42,0-2.13Zm-6.26,3.22c-.05.17-.1.28-.12.4a24.63,24.63,0,0,0-.57,8.39A5.23,5.23,0,0,0,89.13,68a1.52,1.52,0,0,0,2.38.42,5.83,5.83,0,0,0,1.36-1.59c1.41-2.35,1.8-5,2.19-7.67a12.35,12.35,0,0,1-6-2.23Zm10.38-.44c1-.22,2-.38,3-.66s1.61-.6,2.42-.91a.44.44,0,0,0,.28-.45c.09-1.72.14-3.44.27-5.15a44.19,44.19,0,0,1,2.19-11.65,12.85,12.85,0,0,1,2-3.67,5.34,5.34,0,0,1,4.6-2.25,12.75,12.75,0,0,1,4.8,1,5.34,5.34,0,0,1,2.23,1.65,3.35,3.35,0,0,1,.52,1.05,1.39,1.39,0,0,1-.9,1.74,2.29,2.29,0,0,1-2.54-.32,5.72,5.72,0,0,0-.82-.59,1.2,1.2,0,0,0-1.66.19,6.21,6.21,0,0,0-1.3,2.08,31.09,31.09,0,0,0-1.88,6.39c-.44,2.24-.78,4.5-1.16,6.75,0,.21,0,.42-.06.7a3.29,3.29,0,0,0,.41-.22l2.45-1.82a2.14,2.14,0,0,1,.54-.39.78.78,0,0,1,.58.07,1.15,1.15,0,0,1,.41.51,1.05,1.05,0,0,1,.06.61,8,8,0,0,1-2.18,3.68A17.15,17.15,0,0,1,111,57.15a1,1,0,0,0-.37.59c-.11.69-.17,1.39-.24,2.09-.14,1.3-.28,2.59-.41,3.89-.16,1.63-.31,3.26-.48,4.89s-.35,3.52-.6,5.27c-.37,2.51-.76,5-1.23,7.52a23.89,23.89,0,0,1-2,6.28,11.58,11.58,0,0,1-.7,1.18A4.88,4.88,0,0,1,100.85,91a4.21,4.21,0,0,1-2.58-.55c-.16-.1-.38-.28-.37-.41s.31-.18.5-.21A3.31,3.31,0,0,0,101,88.08a13.72,13.72,0,0,0,1.45-4.16c.38-2.08.73-4.17,1-6.26.31-2.59.53-5.2.74-7.8.28-3.46.52-6.92.77-10.38,0-.16,0-.32,0-.52a15.73,15.73,0,0,1-5.78.53c-.17.67-.32,1.33-.5,2a29.62,29.62,0,0,1-3,7.42,10.8,10.8,0,0,1-2.09,2.61,4.69,4.69,0,0,1-5.9.6,13.23,13.23,0,0,1-3.37-2.93L84.23,69c-.46.44-.91.88-1.37,1.31a12.87,12.87,0,0,1-6.19,3.44,11.07,11.07,0,0,1-9.93-2.43,11.94,11.94,0,0,1-3.39-5.49,22.88,22.88,0,0,1-.92-8.51,36,36,0,0,1,3.21-12.7,31,31,0,0,1,5.83-8.85,19.35,19.35,0,0,1,8.75-5.51,16.55,16.55,0,0,1,5.74-.54,11.57,11.57,0,0,1,3.63.74,5.86,5.86,0,0,1,3.8,5.35,5.1,5.1,0,0,1-.22,1.4.57.57,0,0,1-.47.42c-1,.29-2.08.62-3.12.91a4.44,4.44,0,0,1-.91.11c-.24,0-.35-.09-.35-.37A9.72,9.72,0,0,0,88,35.41a4.81,4.81,0,0,0-.43-1,2.25,2.25,0,0,0-2.24-1.12,10.53,10.53,0,0,0-4,1.15,17,17,0,0,0-6,5.05,32.59,32.59,0,0,0-6,13.26,29.58,29.58,0,0,0-.7,7.36,15.18,15.18,0,0,0,1.14,5.58,6.36,6.36,0,0,0,2.37,3,4.91,4.91,0,0,0,2.41.77,9.55,9.55,0,0,0,4.38-.73,6.58,6.58,0,0,0,2.91-2.52,9.12,9.12,0,0,0,1.3-4c.36-2.9.69-5.8,1.12-8.68A18.49,18.49,0,0,1,86,47.74a8.07,8.07,0,0,1,4-4,7.59,7.59,0,0,1,4.18-.55,5.2,5.2,0,0,1,3.92,3.06,12.74,12.74,0,0,1,1.21,4.1,26.07,26.07,0,0,1,.15,5.88s0,.1,0,.25Z"/><path class="cls-3" d="M26,45.41c-.21.9-.45,1.79-.64,2.69-1.06,5.09-2.13,10.18-3.16,15.28-.27,1.37-.39,2.77-.58,4.16a.67.67,0,0,1-.33.52c-.57.37-1.14.75-1.7,1.13a5.73,5.73,0,0,1-2.45.86,8.18,8.18,0,0,1-1.16.07c-.46,0-.58-.1-.66-.54-.34-2-.68-3.95-1-5.93-.43-2.65-.83-5.3-1.26-7.94-.38-2.29-.78-4.57-1.17-6.85a3.28,3.28,0,0,0-.27-.86l-.27,1.19q-2,9-4.09,17.94C7,68.1,6.73,69,6.47,70a2.11,2.11,0,0,1-1.06,1.35,6.41,6.41,0,0,1-2.55.77c-.74.08-1.48.11-2.22.16A.7.7,0,0,1,0,71.61a3.44,3.44,0,0,1,.11-.84c.53-1.91,1.1-3.81,1.61-5.72q2.55-9.66,5.06-19.33c.41-1.57.7-3.17,1-4.77.15-.81.2-1.63.34-2.44a3.47,3.47,0,0,1,.82-1.68,2.4,2.4,0,0,1,2.7-.76,19.68,19.68,0,0,1,1.85.72c.5.21,1,.46,1.48.66a.93.93,0,0,1,.61.63,24.5,24.5,0,0,1,.71,2.73c.47,3.09.89,6.18,1.31,9.27.29,2.09.56,4.19.84,6.28,0,.17.07.33.11.5h.08c.2-.71.42-1.41.6-2.12,1.15-4.55,2.27-9.11,3.43-13.66a56.41,56.41,0,0,1,2.12-6.86c.38-1,.55-1.1,1.58-1.08a7.38,7.38,0,0,1,4.51,1.46,2.52,2.52,0,0,1,1,2.05Q32,41,32.2,45.28c.1,2.35.21,4.69.35,7q.39,6.43.84,12.85.23,3.23.57,6.44c.2,1.86.43,3.71.73,5.56a5.74,5.74,0,0,0,1.78,3.43c.17.16.37.29.55.44.36.3.36.46,0,.78a2.36,2.36,0,0,1-1.46.61,4.26,4.26,0,0,1-4.85-3,43.51,43.51,0,0,1-1.59-6c-.64-3.28-1-6.59-1.42-9.9-.22-1.93-.45-3.86-.64-5.79s-.35-4-.51-5.93c-.14-1.72-.27-3.45-.41-5.17,0-.41-.06-.83-.09-1.24Z"/><path class="cls-3" d="M145.1,60.71a7.43,7.43,0,0,0,.12.81.42.42,0,0,0,.72.2,1.43,1.43,0,0,0,.18-.21,21.74,21.74,0,0,0,3.15-5.68,14.3,14.3,0,0,0,.55-2.49.86.86,0,0,0-.2-.68c-.21-.2-.51,0-.72.13a4.7,4.7,0,0,0-.68.61,12.08,12.08,0,0,0-2,2.89,11.34,11.34,0,0,0-1.16,4.42Zm-13.65-3c0,.06,0,.12,0,.18,0,.57.15.71.68.49a5,5,0,0,0,1.26-.72,13,13,0,0,0,3.24-4.16,5.72,5.72,0,0,0,.72-2.12c.07-.72-.27-1-1-1a3.68,3.68,0,0,0-2.31,1.13,10,10,0,0,0-2.6,6.17Zm-8.05,2.63,2.65-.38c.21,0,.21-.17.23-.33a19.94,19.94,0,0,1,2.2-7.5,9.36,9.36,0,0,1,3.91-4.08,7.33,7.33,0,0,1,4.91-.73,3.34,3.34,0,0,1,2.71,2.9,8.44,8.44,0,0,1-.68,4.65,13.45,13.45,0,0,1-6.07,6.89,16.81,16.81,0,0,1-1.65.71c-.13.05-.24.08-.22.26a9.85,9.85,0,0,0,2.21,5.49,3.79,3.79,0,0,0,3.14,1.41,4.49,4.49,0,0,0,2.53-1.09,9.52,9.52,0,0,0,1.92-2.08.39.39,0,0,0,.07-.3,12.3,12.3,0,0,1-.72-4.31,16.39,16.39,0,0,1,2-8.19,10,10,0,0,1,2.58-3,4.54,4.54,0,0,1,5.34-.56A4.27,4.27,0,0,1,153,54.79a12.44,12.44,0,0,1-1.56,4.9,30,30,0,0,1-4.68,6.56,6.51,6.51,0,0,1-.63.57c-.15.12-.19.24-.09.39a9.1,9.1,0,0,0,.77,1.05,8.22,8.22,0,0,0,2.57,1.83,2.81,2.81,0,0,0,2.22.09,10,10,0,0,0,2.94-1.77,24.57,24.57,0,0,0,4.7-5.07c.43-.62.74-1.33,1.12-2a8.73,8.73,0,0,1,.66-1,4.2,4.2,0,0,1,.59-.5,15.2,15.2,0,0,1,.4,1.47c0,.19-.19.41-.17.61,0,.42-.23.87.14,1.28a.61.61,0,0,1,.09.52c-.23.62-.49,1.22-.78,1.82a14.07,14.07,0,0,1-6.66,6.52,8.28,8.28,0,0,1-8.22-.41,11.39,11.39,0,0,1-2.61-2l0,0a24.07,24.07,0,0,1-2.05,1.5,9.81,9.81,0,0,1-8.92.83,9.32,9.32,0,0,1-4.57-4.19,15.19,15.19,0,0,1-1.62-3.93c-.06-.25-.13-.33-.41-.26-.68.18-1.36.31-2.05.45a.3.3,0,0,0-.28.32c-.17,1.82-.34,3.65-.54,5.47a47,47,0,0,1-2.43,11.35,14.73,14.73,0,0,1-2.14,4.13A7.43,7.43,0,0,1,114,88.24a5.87,5.87,0,0,1-3.74-.54c-.12-.06-.19-.23-.28-.34a1.29,1.29,0,0,1,.37-.2,5.92,5.92,0,0,0,4.46-3.4A11.62,11.62,0,0,0,116,79.61c.25-2.24.48-4.49.65-6.74.16-2,.24-4.06.33-6.09.06-1.16.08-2.32.13-3.48a.39.39,0,0,0-.28-.45,4.9,4.9,0,0,1-1.9-1.13c-.06-.06-.21,0-.37-.08a.35.35,0,0,0-.43-.26s-.1,0-.12-.08l-1-1.52a1.19,1.19,0,0,1,.94-.29c.92.12,1.84.29,2.76.44l.53.12c0-.52,0-1,0-1.47,0-1.58,0-3.16.08-4.73a21.07,21.07,0,0,1,2.37-9.16,8.57,8.57,0,0,1,5.56-4.29A6,6,0,0,1,131,42.07a4.32,4.32,0,0,1,1.25,1.78,1.19,1.19,0,0,1-1.08,1.72,2.28,2.28,0,0,1-2-.6c-.15-.14-.32-.26-.46-.4a1.9,1.9,0,0,0-2.21-.32,2.44,2.44,0,0,0-.8.71,9.14,9.14,0,0,0-1.94,5.41c-.26,2.9-.4,5.81-.37,8.72,0,.4,0,.81,0,1.25Z"/></g><path class="cls-3" d="M45.36,58.84c-.49.06-1,.1-1.47.19a10.9,10.9,0,0,1-3.37.14.32.32,0,0,0-.4.22c-.28.65-.57,1.3-.84,2-.21.5-.38,1-.59,1.5A3.53,3.53,0,0,1,36,65a4,4,0,0,1-.78,0,4.91,4.91,0,0,1,.13-.5c.84-2.09,1.64-4.2,2.53-6.27a4.93,4.93,0,0,0,.22-3.64,24.94,24.94,0,0,1-.69-2.53A10.29,10.29,0,0,1,37.38,49a13.33,13.33,0,0,1,1-4.31,5.62,5.62,0,0,1,1.31-1.89,3.26,3.26,0,0,1,2.42-.9,16.77,16.77,0,0,1,1.88.19c.39.06.47.29.47.69A31,31,0,0,1,43,51.29c-.21.72-.4,1.45-.59,2.17a.66.66,0,0,0,0,.29,10,10,0,0,0,1.23,3c.15.25.31.19.47.06.65-.5,1.28-1,2-1.52a19.62,19.62,0,0,1,2.07-1.39,3.78,3.78,0,0,1,3.55-.07l.14.07c.45.25.55.42.33.88-.55,1.15-1.16,2.28-1.72,3.43a68,68,0,0,0-3.06,6.4,12.5,12.5,0,0,0-.84,3.67A2.89,2.89,0,0,0,47.69,71l.9.63c.37.26.38.48,0,.78a3.08,3.08,0,0,1-2.68.69,3.75,3.75,0,0,1-3.12-2.76,7.52,7.52,0,0,1,0-3,40.84,40.84,0,0,1,2.43-8.13c0-.09.07-.17.1-.26a.62.62,0,0,0,0-.16Z"/><path class="cls-3" d="M53.41,70.86A2.59,2.59,0,0,1,51,69.55a.84.84,0,0,1-.07-.79,1,1,0,0,1,.5-.69,1.31,1.31,0,0,0,.38-.34c.27-.31.51-.65.78-1a.93.93,0,0,1,1.18-.09,1.4,1.4,0,0,0,.4.22,2.28,2.28,0,0,1,1.09.84c.19.23.37.45.58.67a.83.83,0,0,1,.07,1.15,2.68,2.68,0,0,1-2.47,1.3Z"/><path class="cls-3" d="M127.07,82.62a.18.18,0,0,1,0-.13V76.83a.14.14,0,0,1,.17-.17H129a.14.14,0,0,1,.17.17v.46a.14.14,0,0,1-.17.17h-1a.28.28,0,0,0-.15,0s0,.06,0,.15v1.29c0,.09,0,.14,0,.15a.28.28,0,0,0,.15,0h1a.14.14,0,0,1,.17.17v.46a.14.14,0,0,1-.17.17h-1a.28.28,0,0,0-.15,0s0,.06,0,.15v1.61c0,.09,0,.14,0,.15a.28.28,0,0,0,.15,0h1a.14.14,0,0,1,.17.17v.46a.14.14,0,0,1-.17.17h-1.81a.18.18,0,0,1-.13,0Z"/><path class="cls-3" d="M130.67,82.28a1.31,1.31,0,0,1-.39-1,.24.24,0,0,1,0-.15.2.2,0,0,1,.15,0h.5c.11,0,.17.07.17.2a.68.68,0,0,0,.14.44.47.47,0,0,0,.39.17.47.47,0,0,0,.37-.15.64.64,0,0,0,.16-.36,1,1,0,0,0-.12-.6,3.12,3.12,0,0,0-.43-.64l-.54-.65a4.06,4.06,0,0,1-.48-.74,2,2,0,0,1-.24-.79,1.25,1.25,0,0,1,.33-1,1.25,1.25,0,0,1,1.75-.08,1.23,1.23,0,0,1,.41.82.44.44,0,0,1,0,.23s-.07,0-.16,0h-.47a.14.14,0,0,1-.17-.17.46.46,0,0,0-.12-.34.4.4,0,0,0-.3-.12.35.35,0,0,0-.35.18.69.69,0,0,0-.07.37,1.63,1.63,0,0,0,.3.71,6.13,6.13,0,0,0,.57.73,4.91,4.91,0,0,1,.59.81,2.31,2.31,0,0,1,.33.93,1.34,1.34,0,0,1-.32,1.08,1.29,1.29,0,0,1-1,.48,1.32,1.32,0,0,1-1-.42Z"/><path class="cls-3" d="M134,76.7a.18.18,0,0,1,.13,0h2.23a.14.14,0,0,1,.17.17v.46a.14.14,0,0,1-.17.17h-.51a.13.13,0,0,0-.17.17v4.85a.14.14,0,0,1-.17.17H135a.14.14,0,0,1-.17-.17V77.63a.29.29,0,0,0,0-.15.26.26,0,0,0-.14,0h-.52a.14.14,0,0,1-.17-.17v-.46a.18.18,0,0,1,0-.13Z"/><path class="cls-3" d="M137.56,81.83a.46.46,0,0,1,.34-.14.48.48,0,0,1,.34.14.46.46,0,0,1,.15.34.5.5,0,0,1-.49.49.46.46,0,0,1-.34-.15.48.48,0,0,1-.14-.34.46.46,0,0,1,.14-.34Z"/><path class="cls-3" d="M143,76.66h.53a.14.14,0,0,1,.17.17v5.66a.14.14,0,0,1-.17.17H143a.14.14,0,0,1-.17-.17v-4a.08.08,0,0,0-.09-.09h-.54a.12.12,0,0,1-.11,0s0-.07,0-.14l.73-1.45a.15.15,0,0,1,.15-.09Z"/><path class="cls-3" d="M146.79,79v-1q0-.65-.43-.65t-.43.65v1q0,.65.43.65t.43-.65Zm-1.41,1.08a1.69,1.69,0,0,1-.31-1.1V78.2a1.64,1.64,0,0,1,.38-1.2,1.27,1.27,0,0,1,1.82,0,1.64,1.64,0,0,1,.38,1.2v2.86a1.8,1.8,0,0,1-.36,1.23,1.19,1.19,0,0,1-.93.39,1.21,1.21,0,0,1-.88-.34,1.58,1.58,0,0,1-.4-1.05q0-.25.17-.25h.51a.14.14,0,0,1,.17.17v.06q0,.62.43.62t.43-.62V80.21a.91.91,0,0,1-.61.27.94.94,0,0,1-.8-.36Z"/><path class="cls-3" d="M150.34,77.57q0-.1-.07-.1H149a.14.14,0,0,1-.17-.17v-.46a.14.14,0,0,1,.17-.17H151a.14.14,0,0,1,.17.17v.51a1,1,0,0,1,0,.21l-1.09,4.95a.18.18,0,0,1-.19.17h-.54q-.17,0-.13-.17l1.1-4.92Z"/><path class="cls-3" d="M154.34,78a.65.65,0,0,0-.15-.47.53.53,0,0,0-.74,0,.65.65,0,0,0-.15.47v3.26a.65.65,0,0,0,.15.47.53.53,0,0,0,.74,0,.65.65,0,0,0,.15-.47V78Zm.86,3a1.7,1.7,0,0,1-.39,1.23,1.41,1.41,0,0,1-2,0,1.7,1.7,0,0,1-.39-1.23V78.25a1.7,1.7,0,0,1,.39-1.23,1.41,1.41,0,0,1,2,0,1.7,1.7,0,0,1,.39,1.23v2.81Z"/></svg>