<svg id="color" xmlns="http://www.w3.org/2000/svg" xmlns:xlink="http://www.w3.org/1999/xlink" viewBox="0 0 156 100"><defs><style>.cls-1{fill:none;}.cls-2{clip-path:url(#clip-path);}.cls-3{fill:#231f20;}.cls-3,.cls-5{fill-rule:evenodd;}.cls-4{fill:#cf0a2c;}.cls-5{fill:#fff;}</style><clipPath id="clip-path"><rect class="cls-1" y="32.02" width="156.33" height="48.04"/></clipPath></defs><title>color_rubbermaid</title><g class="cls-2"><path class="cls-3" d="M153.85,68.3h.2c.32,0,.47.1.47.34s-.14.32-.43.32h-.24V68.3Zm-.67-.41v2.42h.67v-1H154l.45,1h.73l-.54-1.06a.66.66,0,0,0,.52-.65c0-.46-.35-.71-1-.71Zm.93-.55a1.82,1.82,0,0,1,1.28,3.1,1.84,1.84,0,0,1-1.28.52,1.77,1.77,0,0,1-1.28-.55,1.73,1.73,0,0,1-.52-1.25,1.82,1.82,0,0,1,.55-1.3,1.74,1.74,0,0,1,1.26-.51Zm0-.4a2.12,2.12,0,0,0-1.53.62,2.22,2.22,0,0,0-.68,1.59,2.25,2.25,0,0,0,2.21,2.21,2.29,2.29,0,0,0,1.56-.64,2.21,2.21,0,0,0-1.56-3.78Z"/><path class="cls-4" d="M149.95,40.66C115.72,31.71,75,32,75,32S34.2,31.69,0,40.65V71.41l.13,0c34.23,8.95,74.8,8.62,74.85,8.62s40.77.33,75-8.64V40.66Z"/></g><path class="cls-5" d="M35.37,53.24H31.64v4.3c0,2.15-.29,3.34-1.83,3.34s-1.94-1.09-1.94-2.64v-5H24.14V58.8c0,2.55.67,4.56,4.22,4.56,1.71,0,2.49-.49,3.36-2.12h0c0,.58,0,1.17.08,1.75h3.62c-.06-.66-.08-1.38-.08-2V53.24Z"/><path class="cls-5" d="M80.21,63h3.73V59.3c0-2,1.3-3.09,3.3-3.09a6.3,6.3,0,0,1,1,.08V53.11c-2.45,0-3.46.37-4.37,2.23h0c0-.7,0-1.4-.08-2.1H80.14c.05.66.07,1.38.07,2V63Z"/><path class="cls-5" d="M89.68,63h3.73V58.34c0-1.79.54-3,1.84-3,1.69,0,2,1.18,2,2.64v5H101V57.81c0-1.44.54-2.45,1.79-2.45,1.51,0,2.08,1.07,2.08,2.53V63h3.73V57.46c0-3.83-2.52-4.58-4.6-4.58a4.6,4.6,0,0,0-4.12,2.19,3.61,3.61,0,0,0-3.49-2.19A3,3,0,0,0,93.33,55h0c0-.58,0-1.74,0-1.75H89.6c.06.66.08,1.38.08,2V63Z"/><path class="cls-5" d="M8.69,63V49h8.08c3.38,0,5.3,1.22,5.3,3.67,0,1.79-1.46,3-3.55,3.4,1.19.12,2.29.39,2.76,1.26C22,58.58,22,61.54,22.62,63H18.29c-.45-1.36-.39-3.38-.78-4.35-.25-.64-.87-1-2.5-1H12.78V63Zm4.08-11.31V55h2.75C17.4,55,18,54.37,18,53.3c0-1.36-1.07-1.61-3-1.61Z"/><path class="cls-5" d="M37.55,63V49h3.73v5.56a5.49,5.49,0,0,1,4.16-1.65c3.26,0,5,2,5,5.18s-1.85,5.3-4.94,5.3a5.09,5.09,0,0,1-4.37-2c0,.54,0,1.61,0,1.61ZM47,58.06a2.77,2.77,0,0,0-2.82-2.93,2.82,2.82,0,0,0-2.9,3.07A2.86,2.86,0,1,0,47,58.06Z"/><path class="cls-5" d="M78.75,59c0-3.81-1.65-6.16-6.41-6.16-3.34,0-6.27,1.63-6.27,5.4s3,5.09,6.34,5.09c2.7,0,5.36-.26,6.14-3.34h-4c-.19.66-.48,1.32-2.11,1.32A2.25,2.25,0,0,1,69.91,59ZM70,57a2.24,2.24,0,0,1,2.41-2.12c1.32,0,2.37.52,2.41,2.12Z"/><path class="cls-5" d="M114.35,56.12c0-.68.45-1.22,1.82-1.22s2.2.39,2.2,1.94h-2.72c-3.65,0-5.82,1-5.82,3.36,0,2,1.63,3.16,4.41,3.16a4.64,4.64,0,0,0,4.22-1.94h0c0,.52,0,1.24.08,1.58h3.61c-.06-.72-.08-1.46-.08-2.18V57.09c0-3.3-2.18-4.21-6-4.21-2.57,0-5.43.7-5.62,3.24Zm4,2.62c0,1-.54,2.49-3,2.49-1,0-1.62-.41-1.62-1,0-.82.53-1.48,3-1.48Z"/><path class="cls-5" d="M127.41,49h-4.08v2.72h4.08V49Zm-3.9,14h3.73V53.24h-3.73V63Z"/><path class="cls-5" d="M52.16,63V49h3.73v5.55A5.48,5.48,0,0,1,60,52.87c3.27,0,5,2,5,5.19s-1.85,5.3-4.94,5.3a5.07,5.07,0,0,1-4.37-2c0,.54,0,1.62,0,1.62Zm9.44-4.94a2.76,2.76,0,0,0-2.81-2.93,2.82,2.82,0,0,0-2.9,3.07,2.86,2.86,0,1,0,5.71-.14Z"/><path class="cls-5" d="M141.53,63V49H137.8v5.55a5.47,5.47,0,0,0-4.16-1.65c-3.26,0-5,2-5,5.19s1.84,5.3,4.93,5.3a5.07,5.07,0,0,0,4.37-2c0,.54,0,1.62,0,1.62Zm-9.44-4.94a2.77,2.77,0,0,1,2.82-2.93,2.82,2.82,0,0,1,2.9,3.07,2.86,2.86,0,1,1-5.71-.14Z"/></svg>