<svg id="color" xmlns="http://www.w3.org/2000/svg" xmlns:xlink="http://www.w3.org/1999/xlink" viewBox="0 0 126 100"><defs><style>.cls-1{fill:none;}.cls-2{clip-path:url(#clip-path);}.cls-3{fill:#005596;}.cls-4{fill:#fff;}.cls-5{fill:#f58220;}</style><clipPath id="clip-path"><rect class="cls-1" y="-0.09" width="126.35" height="74.68"/></clipPath></defs><title>color_elmers</title><g class="cls-2"><path class="cls-3" d="M122.24,36.21,66.59,1.59a6.76,6.76,0,0,0-6.83,0L4.11,36.2C1.36,37.92.74,39.71.76,41v28.5a4.37,4.37,0,0,0,4.43,4.31h116a4.38,4.38,0,0,0,4.43-4.31V41.05c0-1.31-.58-3.1-3.35-4.84"/><path class="cls-4" d="M63.17,1.43a5.75,5.75,0,0,0-3,.81L4.51,36.85c-2,1.24-3,2.68-3,4.16V69.52a3.62,3.62,0,0,0,3.67,3.55h116a3.62,3.62,0,0,0,3.68-3.55V41.05c0-1.5-1-2.95-3-4.2L66.19,2.24a5.76,5.76,0,0,0-3-.81Zm58,73.16H5.19A5.14,5.14,0,0,1,0,69.52V41c0-1.41.6-3.51,3.71-5.46L59.36,1A7.52,7.52,0,0,1,67,1l55.65,34.61c3.14,2,3.75,4.08,3.71,5.51V69.52a5.14,5.14,0,0,1-5.19,5.07Z"/></g><path class="cls-5" d="M119.44,42.06c3.19,0,3.61-1.37.92-3.05L65.63,4.9a5.07,5.07,0,0,0-4.91,0L6,39c-2.69,1.68-2.28,3.05.92,3.05H119.44"/><path class="cls-3" d="M84.88,24.73A13.44,13.44,0,0,0,78.78,19a3.49,3.49,0,0,0,3-2.56c.58-2.07.3-4.72-4.15-6l-.36-.11.11.32c.37,1.11.38,1.83,0,2.22s-1.83.36-3.21.2L73,13a1.09,1.09,0,0,0-.31-.75A4.83,4.83,0,0,0,70,11.3a3.77,3.77,0,0,1-1.9-.54,3.74,3.74,0,0,0-2-.57,3.08,3.08,0,0,0-1.25.21,1.71,1.71,0,0,1-.64.12,1.58,1.58,0,0,1-.83-.25,1.09,1.09,0,0,0-.57-.2l-.61,0a6.37,6.37,0,0,0-2.54.88,6.33,6.33,0,0,1-1,.45c-.81,0-1.3,0-1.45,0a3.07,3.07,0,0,0-1.82.56,1.8,1.8,0,0,0-.76,1.2c-.75,0-1.49,0-2.22,0-1.74.09-3.25.16-3.67-.44-.28-.38-.09-1.06.59-2.08l.21-.33-.43.07c-5.52.94-6.69,3.81-6.68,6.13v0h0c.32,1.76.92,3.26,4.65,3.54a23.34,23.34,0,0,0-8.59,6,2.28,2.28,0,0,0-1,1.78,2.15,2.15,0,0,0,1.72,1.94c3.43.83,5.93,1.18,8.63.46a6.87,6.87,0,0,1-1.4,3.62,21.74,21.74,0,0,0-7,9.63s-.4,1.39-.45,1.58c-.45,1.29,4.71-1.14,5.9-.71a17.06,17.06,0,0,1,2.25.28c.18.08,2.71,0,5,.13a9.9,9.9,0,0,0,1.87-.05,15.59,15.59,0,0,1,2.33-.07,35.51,35.51,0,0,1,6.8,1.75,33.07,33.07,0,0,0,5.58,1.5,8,8,0,0,0,3.46,0c1.63-.58,5.77-1.52,5.94-2.9.18-1.53-2.74-4-3.71-4.41.51-.46.07,0,.56-.45,2.42-2.06,4.43-3.76,4.49-6.13a5.52,5.52,0,0,0-.18-1.38,1.89,1.89,0,0,1-.07-1,1.59,1.59,0,0,1,.28-.39,5.1,5.1,0,0,0,1.25-2.71,4.81,4.81,0,0,0,2.17-.36,6.23,6.23,0,0,1,.59-.21h0A2.56,2.56,0,0,0,85,26.56a2.17,2.17,0,0,0-.16-1.82"/><path class="cls-4" d="M78,27.84v0a3.69,3.69,0,0,1-3.75,3.4,3.28,3.28,0,0,1-3.41-3.46v0a.81.81,0,0,1,.82-.71.68.68,0,0,1,.71.72v0a1.89,1.89,0,0,0,2,2,2.14,2.14,0,0,0,2.18-1.95v0a.74.74,0,0,1,.77-.7.7.7,0,0,1,.72.71M52.49,34c.68,0,.58.68.51,1.09a2.25,2.25,0,0,0,.06,1.21,3,3,0,0,0,1.81,1.46c.12,0,3.58,1.14,4.63,2.15l.15.13-.19.87-1-.11a8.7,8.7,0,0,0-2.76-.94c-2.42-.57-5.41-1.26-4.52-4.56.17-.67.64-1.34,1.28-1.3ZM71,37.17c-.51,2.16-2,4.53-4.67,4.54h-.62a2.64,2.64,0,0,1-1.85-1,1.22,1.22,0,0,1-.4-.92.53.53,0,0,1,.17-.33.92.92,0,0,1,.6-.16h1.72a2.3,2.3,0,0,0,.64,0h.2c.62,0,1.77-.06,3.79-2.34l.65-.73-.24.91Zm-5.1-12.63c-.12.11-.33.15-.75.07a18.2,18.2,0,0,0-1.95.12,1.92,1.92,0,0,1-1.93,1.54A1.64,1.64,0,0,1,60,25.72a1.17,1.17,0,0,1-.27-1.07,1.67,1.67,0,0,1,.36-.72,1.9,1.9,0,0,0-1.82.68c-.36.43-.76.48-1,.37s-.23-.35-.09-.58a4.89,4.89,0,0,1,3.45-2.27,3,3,0,0,1,2.64,1.21c.78.22,2.42.71,2.59.82l.07.11a.25.25,0,0,1-.06.26Zm9.63-5.47a2,2,0,0,1,.18,2.09,11.38,11.38,0,0,1,4.94,4,12.47,12.47,0,0,0-5.18-2c.27.17.28.93-.17,1.33,1-.3,4.19.64,4.61,1.46a2.42,2.42,0,0,0,2.66.51c1.1-.3.64-1.47,0-2.4a15.71,15.71,0,0,0-7.06-5.06ZM51.61,24.93a15.7,15.7,0,0,0-8.4,2l-.3-.33C45.51,24,49.85,22.49,53,22l.41-.08-1.63,3Zm3.87-8c-.94,1.71-6.54,3.08-10.3.81-1.8-1.1-1.16-4.48,2.06-5.49-.55,2.61,1.72,2.56,5.37,2.22,3.85-.37,3.41,1.53,2.88,2.46Zm5.14,12.49a24.41,24.41,0,0,0,1.63,2.11,2.51,2.51,0,0,0,.17.2c.54.59,1.44,1.57,4.18,1.42.3,0,.82-.08,1.44-.16a15.75,15.75,0,0,1,4.58-.16l0,.23a16.82,16.82,0,0,0-4,.71,1.83,1.83,0,0,1-.27.08l-2.37.45c-1.72.31-6.21-.94-7.12-2a1.39,1.39,0,0,1-.25-1.18,1.63,1.63,0,0,1,.33-.72c.41-.3,1.48-1,1.54-1l.18,0Zm1.89-7.47a5.34,5.34,0,0,1-2.47-1,2.73,2.73,0,0,0-1.19-.55c-1.69-.07-2.21,1.51-2.69,2.95a9.52,9.52,0,0,1-.47,1.25l-.1.12a.49.49,0,0,1-.4.14.51.51,0,0,1-.45-.2,5.83,5.83,0,0,1,0-2.73,4.58,4.58,0,0,1,2.84-3.2l.26-.09a4,4,0,0,1,3.38,1.18l.51.4c1.2.95,1.53,1.32,1.37,1.6s-.29.21-.55.18Zm6.82-3.54a1.82,1.82,0,0,0-2.18.4,1.29,1.29,0,0,1-1.65-.3,4.45,4.45,0,0,0-1.07-1.16c-.46-.37-1.21-.1-1.79.28a3,3,0,0,1-2.72.17c-1.59-.82-3.74-.52-4.49.64a4,4,0,0,1-3,1.53,24.06,24.06,0,0,0-11.5,6.17c-.51.63-.94,1.58.74,2,3.24.84,5.63,1.35,9.48-.87,1.55-1.07,1.44,0,.43,1.1a10,10,0,0,1-1.2,1A7.68,7.68,0,0,1,49,33.78C40.3,43.14,47.71,42,50.69,42a40.5,40.5,0,0,1,7,.58c2.1.34,7.86,2.35,11.13,2.63a7.85,7.85,0,0,0,2.66-.14,2.65,2.65,0,0,0,1.12-.91c.68-1.17-.47-1.27-1-1.26-.8,0-.69,1.07-1.37,1.07s-.81-.65-.75-1.14.93-1.31,1.59-2.06c2.65-3,6.51-3.91,6.56-7.87,0-1.1-1.37-.24-1.32-.82s2.4-2.15,2.5-4l0-.51c0-.52-1-1.37-2-1.42l-5-.1a3,3,0,0,0-1.39.54c-1.35,1.7-2,1.08-1.2-.36A2.12,2.12,0,0,1,71.08,25c.58,0,1.09-.25,1.66-.24-.23-.93,0-1.85,1-2.1.59-.17.72-.77.79-1.61l0-.47c0-.1,0-.93-.59-1-1.07,0-2.15,2-2.52,2a.43.43,0,0,1-.4-.65,5.68,5.68,0,0,1,2.63-2.75c.32-.13-.33-.58-.56-.59-.83-.38-1.34.16-2,.39a2,2,0,0,1-1.84.34ZM71.61,16c.5-.1,1.24.21,1.53,0a.22.22,0,0,0,.08-.28,18,18,0,0,1-1.8-1.28c-.74-.7,0-2.08-1.49-2a8.81,8.81,0,0,1-1.65,0c-1-.16-1.56-1-2.28-1-1-.06-1,.6-2,.54-.8,0-.95-.46-1.6-.5-1.34-.08-1.82,1.08-2.73,1l-.92,0a2.51,2.51,0,0,0-2.12.56c-.65.64.76.43.91,1.5,0,.34-.57,1.51.07,1.23a4.54,4.54,0,0,1,3.18.22c1.23.7,1.54-.48,2.75-.56a2.84,2.84,0,0,1,1.84.56c.41.34.65.89,1.23,1,.41.1.8-.43,1.56-.47s1.21.29,1.68.26c.73,0,1-.66,1.77-.82Zm1.33-1.94c3.15.54,5.58.63,5.76-1.79a2.85,2.85,0,0,1,.38,5.1,8.63,8.63,0,0,1-4,.24,1.05,1.05,0,0,0,.1-1.76c-.79-.63-1.4-1.05-2.25-1.79Z"/><path class="cls-4" d="M21.67,62.89c.22,0,.73,0,.73.45,0,.25-.31,1.37-.34,1.6-.31,1.4-.34,1.54-1.26,1.54L10,66.5c-1.23,0-1.43,0-1.43-.53,0-.28,2-10,2.33-11.37.5-2.38.56-2.66,1.06-5.18.28-1.43.59-1.52,1.37-1.52,1.46,0,7.9-.08,9.19-.08.25,0,1.23,0,1.4,0s.56.06.56.42a16.69,16.69,0,0,1-.73,2.94c-.14.14-.2.2-1.68.2l-5,0c-.36,1.77-.39,2-.81,3.81,2.27-.09,3.19-.11,5.69-.11.67,0,1,0,1,.48a17.19,17.19,0,0,1-.7,2.88c-.17.25-.48.25-1.2.25-1.82,0-3.73,0-5.55,0-.28,1.49-.62,3-1,4.45,1.79-.08,3-.14,4.68-.16l2.52-.06"/><path class="cls-4" d="M37.36,62.5c.59,0,.76.17.76.5a14.92,14.92,0,0,1-.76,3.22c-.08.14-.22.2-.59.23-3.08.05-6.94.05-10.08.05-1.68,0-1.93,0-1.93-.56,0-.14.22-1.15.47-2.38,2-9.47,3-14.29,3.25-15.13a.68.68,0,0,1,.7-.56c.45-.05,1.85-.05,2.41-.05a14.31,14.31,0,0,1,1.94.08c.25.06.28.28.28.5,0,.56-2.49,12-2.94,14.26,1.71-.06,4.88-.17,6.5-.17"/><path class="cls-4" d="M57.56,66.62c-.48,0-.7-.06-.7-.53,0-.11.34-4.68,1-10.76-.65,1.09-5.07,8.26-5.44,8.85-.84,1.43-1.26,1.79-2.07,2.13a3.66,3.66,0,0,1-1.07.28c-.64,0-.78-.67-1.09-2.29s-1.17-5.94-1.6-9.36c-.47,1.8-2.61,10.79-2.91,11.29-.14.29-.25.29-1.23.31l-2,.06c-.42,0-.78,0-.78-.45s1.48-5.91,2.21-8.55c1.17-4.09,1.32-4.54,2.1-7.34.59-2,.65-2,.78-2.19s.39-.2,1.32-.25c.73-.06,2.63-.2,3.31-.2s.73.11.9.84c.11.5,1.37,8.29,1.63,9.86.53-.87,5.38-9,5.91-9.89s.93-.81,1.85-.81c.56,0,2.58,0,3,.06s.39.5.39.84c0,1.65-.53,8.88-.61,10.36C62.29,60,62,65.47,61.79,66c-.09.22-.25.42-.87.45l-3.36.14"/><path class="cls-4" d="M78,62.89c.22,0,.72,0,.72.45,0,.25-.31,1.37-.33,1.6-.31,1.4-.34,1.54-1.26,1.54l-10.81,0c-1.23,0-1.43,0-1.43-.54,0-.28,2-10,2.33-11.37.5-2.38.56-2.66,1.06-5.18.28-1.43.59-1.52,1.37-1.52,1.45,0,7.9-.08,9.19-.08.25,0,1.23,0,1.4,0s.56.06.56.42a16.66,16.66,0,0,1-.73,2.94c-.14.14-.19.2-1.68.2l-5,0c-.37,1.76-.39,2-.81,3.81,2.27-.09,3.19-.11,5.69-.11.67,0,1,0,1,.47a17.56,17.56,0,0,1-.7,2.89c-.17.25-.48.25-1.21.25-1.82,0-3.73,0-5.54,0-.28,1.49-.62,3-1,4.46,1.79-.08,3-.14,4.68-.17L78,62.89"/><path class="cls-4" d="M92,56.45A4.34,4.34,0,0,0,93.86,53c0-1.51-1.34-2-2.8-2a11.87,11.87,0,0,0-1.37.06c-.22,1.15-1.09,4.82-1.43,6.31a6.91,6.91,0,0,0,3.69-1M82.38,66.62c-1.21,0-1.46,0-1.46-.51,0-1,3.67-17.17,3.92-17.79.14-.39.36-.45.81-.5a39,39,0,0,1,4.51-.17c2.24,0,5,.06,6.8,1.15a4.62,4.62,0,0,1,2.07,4,6.93,6.93,0,0,1-2.52,5.1,10,10,0,0,1-2.46,1.51c.52.73,2.4,3.4,4.26,5.8.31.41.33.53.32.64s-.13.3-1.36.67c-.37.09-2,.62-2.35.71a4.68,4.68,0,0,1-.68.12c-.11,0-.25,0-.56-.48-.46-.62-3.52-5.26-4-6.14a18.52,18.52,0,0,1-2.2.26c-.2.81-1,4.65-1.07,5.06s-.25.54-1,.54l-3,0Z"/><path class="cls-4" d="M103.74,52.9c-.51.91-.68,1.2-1,1.24a7,7,0,0,1-2.13-.81.85.85,0,0,1-.08-.19,34.31,34.31,0,0,1,1.75-4.4c.2-.43.67-1.5,1-1.54a8.26,8.26,0,0,1,1.28.16c1.12.23,1.25.24,1.3.66a24.25,24.25,0,0,1-2.16,4.88"/><path class="cls-4" d="M104.31,66.7c-.5-.14-.53-.28-.53-.53a9.12,9.12,0,0,1,.45-2.21c.17-.67.25-1,.62-1,.17,0,1,.16,1.09.19a17.41,17.41,0,0,0,2.63.25c1.57,0,2.63-.81,2.63-1.82,0-.75-.36-1.17-1.9-2.83-2-2.15-3-3.36-3-5.12,0-3,2.83-6.25,9.08-6.25a13.2,13.2,0,0,1,2.63.19c.22.09.33.17.33.42a6.32,6.32,0,0,1-.31,1.4c-.45,1.74-.45,1.79-.92,1.79,0,0-1.68-.11-2-.11-2.72,0-3.25,1.46-3.25,2.07s.25,1.15,1.54,2.47c2.63,2.72,3.47,3.56,3.47,5.3,0,3.16-3.47,6.19-8.83,6.19a17.61,17.61,0,0,1-3.75-.45"/><path class="cls-4" d="M118.07,66.33h.13c.15,0,.28-.06.28-.19s-.08-.2-.26-.2l-.15,0v.37Zm0,.73h-.28V65.76a3,3,0,0,1,.46,0,.61.61,0,0,1,.41.1.34.34,0,0,1,.12.28.33.33,0,0,1-.25.31v0c.12,0,.18.14.21.32a1.21,1.21,0,0,0,.09.32h-.29a1.08,1.08,0,0,1-.1-.32c0-.13-.1-.2-.25-.2h-.13v.51Zm-.74-.67a1,1,0,0,0,.94,1,1,1,0,0,0,.92-1,.93.93,0,1,0-1.85,0Zm2.16,0a1.24,1.24,0,1,1-1.22-1.29,1.26,1.26,0,0,1,1.22,1.29Z"/></svg>