<?xml version="1.0" encoding="utf-8"?>
<!-- Generator: Adobe Illustrator 22.0.1, SVG Export Plug-In . SVG Version: 6.00 Build 0)  -->
<svg version="1.1" id="color" xmlns="http://www.w3.org/2000/svg" xmlns:xlink="http://www.w3.org/1999/xlink" x="0px" y="0px"
	 viewBox="0 0 151 100" style="enable-background:new 0 0 151 100;" xml:space="preserve">
<style type="text/css">
	.st0{fill:#CE0E2D;}
</style>
<title>color_firstalert</title>
<g>
	<g>
		<g>
			<polygon class="st0" points="109.5,47.1 110.2,44.3 105.6,44.3 106.3,47.1 106.3,52.9 105.6,55.7 113.8,55.7 114.6,52.9 
				109.5,52.9 			"/>
			<polygon class="st0" points="124.2,47 124.9,44.3 115.4,44.3 116.1,47.1 116.1,52.9 115.4,55.7 124.2,55.7 124.9,53 119.2,53 
				119.2,51.2 123,51.2 123.7,48.7 119.2,48.7 119.2,47 			"/>
			<polygon class="st0" points="146.8,47.1 147.6,44.3 138.2,44.3 137.5,47.1 140.8,47.1 140.8,52.9 140,55.7 144.7,55.7 
				143.9,52.9 143.9,47.1 			"/>
			<path class="st0" d="M96.8,44.2L92,55.6h4l-0.3-1.1l0.4-0.9h4.4l0.4,0.9l-0.3,1.1h4.1l-4.8-11.4L96.8,44.2z M97,51.2l1.3-3.2
				l1.3,3.2H97z"/>
			<path class="st0" d="M136.6,48.2L136.6,48.2c0-1.1-0.3-2-1-2.7c-0.8-0.8-2-1.2-3.7-1.2h-6.1l0.7,2.7v0.1v5.8V53l-0.7,2.7h3.9
				v-3.4h1.3l0,0l2.3,3.4h3.6l-2.7-4C135.7,51.1,136.6,50,136.6,48.2z M133.5,48.4c0,0.8-0.6,1.3-1.7,1.3h-2.1V47h2.1
				C132.8,47.1,133.5,47.5,133.5,48.4L133.5,48.4z"/>
			<polygon class="st0" points="54.5,44.3 49.9,44.3 50.6,47.1 50.6,52.9 49.9,55.7 54.5,55.7 53.8,52.9 53.8,47.1 			"/>
			<path class="st0" d="M73.3,48.6c-1.6-0.4-2-0.6-2-1.1l0,0c0-0.4,0.4-0.7,1.1-0.7c1,0,2.1,0.4,3.2,1.1l0.8-2.8
				c-1.1-0.6-2.3-0.9-3.8-0.9c-2.7,0-4.4,1.5-4.4,3.6l0,0c0,2.3,1.9,3,4.3,3.6c1.5,0.4,1.9,0.6,1.9,1.1l0,0c0,0.5-0.5,0.8-1.3,0.8
				s-1.6-0.2-2.3-0.5c-0.5-0.2-0.9-0.5-1.3-0.8l0,0l-1.2,2.5c0.1,0,0.1,0.1,0.2,0.1c1.3,0.8,2.8,1.2,4.5,1.2c2.8,0,4.6-1.4,4.6-3.7
				l0,0C77.5,50,75.9,49.2,73.3,48.6z"/>
			<polygon class="st0" points="77.1,47.1 80.4,47.1 80.4,52.9 79.6,55.7 84.3,55.7 83.5,52.9 83.5,47.1 86.5,47.1 87.2,44.3 
				77.8,44.3 			"/>
			<polygon class="st0" points="39.1,44.3 39.1,44.3 39.9,47.1 39.9,52.9 39.1,55.7 43.8,55.7 43.8,55.7 43,52.9 43,51.6 47,51.6 
				47.7,49 43,49 43,47.1 48.2,47.1 49,44.3 			"/>
			<path class="st0" d="M66.8,48.2L66.8,48.2c0-1.1-0.3-2-1-2.7c-0.8-0.8-2-1.2-3.7-1.2H56l0.7,2.8v5.8L56,55.7h3.9v-3.4h1.3l0,0
				l2.3,3.4h3.6l-2.7-4C65.9,51.1,66.8,50,66.8,48.2z M63.6,48.4c0,0.8-0.6,1.3-1.7,1.3h-2.1V47h2.1C63,47.1,63.6,47.5,63.6,48.4
				L63.6,48.4z"/>
		</g>
		<g>
			<path class="st0" d="M32.8,46.6c-1.6-1.3-2.7-3.1-2.7-5.2V41c0-0.5-0.6-0.7-0.9-0.4l-3.7,3.7v-1.6c0-0.4-0.3-0.7-0.6-0.8
				c-0.5-0.1-1-0.2-1.5-0.3l3.3-3.3c0.3-0.3,0.1-0.9-0.4-0.9H26c-2.1,0-3.9-1-5.2-2.7c-0.8-1-2-1.7-3.4-1.7s-2.6,0.7-3.4,1.7
				c-1.3,1.6-3.1,2.7-5.2,2.7H8.3c-0.5,0-0.7,0.6-0.4,0.9l3.3,3.3c-0.5,0.1-1,0.2-1.5,0.3c-0.4,0.1-0.6,0.4-0.6,0.8v1.6l-3.7-3.7
				c-0.3-0.3-0.9-0.1-0.9,0.4v0.4c0,2.1-1,3.9-2.7,5.2c-1,0.8-1.7,2-1.7,3.4s0.7,2.6,1.7,3.4c1.6,1.3,2.7,3.1,2.7,5.2V59
				c0,0.5,0.6,0.7,0.9,0.4l4.2-4.2c0.4,0.8,1.1,1.5,1.9,2l0.6,0.3L8,61.8c-0.3,0.3-0.1,0.9,0.4,0.9h0.4c2.1,0,3.9,1,5.2,2.7
				c0.8,1,2,1.7,3.4,1.7s2.6-0.7,3.4-1.7c1.3-1.6,3.1-2.7,5.2-2.7h0.4c0.5,0,0.7-0.6,0.4-0.9l-4.3-4.3l0.6-0.3
				c0.8-0.5,1.5-1.2,1.9-2l4.2,4.2c0.3,0.3,0.9,0.1,0.9-0.4v-0.4c0-2.1,1-3.9,2.7-5.2c1-0.8,1.7-2,1.7-3.4S33.8,47.3,32.8,46.6z
				 M23.7,52.9c0,1.1-0.6,2.1-1.5,2.6l-4.8,2.7l-3.7-2.1l-1.1-0.6c-0.7-0.4-1.2-1-1.4-1.8c-0.1-0.3-0.1-0.5-0.1-0.8v-6.8l0,0v-2.7
				c0.6-0.1,1.2-0.2,1.8-0.3c1.4-0.2,2.9-0.3,4.5-0.3c0.6,0,1.1,0,1.6,0c1.6,0.1,3.2,0.3,4.6,0.6L23.7,52.9L23.7,52.9z"/>
			<path class="st0" d="M12.4,44.7c-0.1,0-0.2,0-0.4,0.1c0.1,0.3,0.2,0.6,0.4,0.9c0.2,0.6,0.5,1.2,0.7,1.8c0,2.2,0,4.5,0,6.7
				c0.1,0.1,0.1,0.1,0.2,0.2l3.2,1.8c0-1.5,0-2.9,0-4.4c1.1,0,2.2,0,3.4,0c0.4-0.9,0.7-1.9,1.1-2.8c-1.5-0.1-3-0.2-4.5-0.1
				c0-0.6,0-1.1,0-1.7c1.7,0,3.4,0,5.1,0.2c0.2-0.6,0.5-1.2,0.7-1.8c0.1-0.3,0.2-0.6,0.4-0.9c-0.1,0-0.2,0-0.4-0.1
				C19.1,44.1,15.7,44.1,12.4,44.7z"/>
		</g>
	</g>
	<g>
		<path class="st0" d="M149,44.5h-0.4v-0.1h0.9v0.1h-0.4v1H149V44.5z"/>
		<path class="st0" d="M150.6,45c0-0.2,0-0.4,0-0.5l0,0c0,0.1-0.1,0.3-0.1,0.4l-0.2,0.6h-0.1L150,45c-0.1-0.2-0.1-0.3-0.1-0.4l0,0
			c0,0.1,0,0.3,0,0.5v0.5h-0.1l0.1-1.2h0.2l0.2,0.6c0,0.1,0.1,0.3,0.1,0.4l0,0c0-0.1,0.1-0.2,0.1-0.4l0.2-0.6h0.2l0.1,1.2h-0.1
			L150.6,45z"/>
	</g>
</g>
</svg>
