<svg id="color" xmlns="http://www.w3.org/2000/svg" xmlns:xlink="http://www.w3.org/1999/xlink" width="130" height="100" viewBox="0 0 130 100">
  <defs>
    <style>
      .cls-1 {
        fill: none;
      }

      .cls-2 {
        clip-path: url(#clip-path);
      }

      .cls-3 {
        fill: #231f20;
      }
    </style>
    <clipPath id="clip-path">
      <rect class="cls-1" x="0.02" y="12.96" width="129.57" height="77.96"/>
    </clipPath>
  </defs>
  <title>color_woodwick</title>
  <g>
    <g class="cls-2">
      <path class="cls-3" d="M64.69,53.65H63.28L51.19,20.89,40.58,53.65h-1.5l-9.62-31q-1.28-4.19-1.85-5.57a4.54,4.54,0,0,0-1.49-2,5.81,5.81,0,0,0-3-.74V13h15v1.39a7.24,7.24,0,0,0-3.47.77,2,2,0,0,0-.76,1.67,24.51,24.51,0,0,0,1.23,4.9L42.2,44.86,52.53,13h1.78L66,44.86l6-21.12a27,27,0,0,0,1.21-5.55q0-3.83-4.1-3.83V13H79.94v1.39a4.64,4.64,0,0,0-3.59,1.76q-1.18,1.58-3,7.59l-8.69,30Z"/>
    </g>
    <path class="cls-3" d="M91.45,53.77h-1L81.09,28.56,72.95,53.77h-1.1L64.53,29.94c-.66-2.17-1.14-3.6-1.43-4.32A3.52,3.52,0,0,0,62,24a4.49,4.49,0,0,0-2.36-.58v-1H71.05v1a5.48,5.48,0,0,0-2.66.6,1.55,1.55,0,0,0-.59,1.3,19.47,19.47,0,0,0,.95,3.81L74.18,47l7.94-24.55H83.4l9,24.55,4.69-16.25a20.9,20.9,0,0,0,.93-4.31q0-3-3.17-3v-1h8.35v1a3.58,3.58,0,0,0-2.78,1.36,23.18,23.18,0,0,0-2.3,5.89l-6.7,23.05Z"/>
    <g class="cls-2">
      <path class="cls-3" d="M109.79,88.93v-1.6l.5,1.6h.29l.49-1.58v1.58h.28V87.05h-.45l-.46,1.5-.47-1.5h-.46v1.88Zm-1.12,0v-1.6h.62v-.28h-1.55v.28h.61v1.6Z"/>
      <path class="cls-3" d="M19.6,78.53h-.66L13.26,63.11l-5,15.42H7.57L3,64c-.4-1.33-.7-2.21-.88-2.64a2.13,2.13,0,0,0-.7-1A2.75,2.75,0,0,0,0,60v-.65H7.07V60a3.34,3.34,0,0,0-1.63.36,1,1,0,0,0-.36.79,11.89,11.89,0,0,0,.58,2.33L9,74.39l4.88-15h.82l5.48,15L23,64.47a12.75,12.75,0,0,0,.57-2.63c0-1.22-.65-1.82-1.94-1.82v-.65h5.1V60a2.16,2.16,0,0,0-1.69.83,14.35,14.35,0,0,0-1.4,3.6L19.6,78.53Z"/>
    </g>
    <path class="cls-3" d="M27.83,72.49q0,3,1,4.2a3.34,3.34,0,0,0,2.73,1.2,3.33,3.33,0,0,0,2.75-1.2,6.94,6.94,0,0,0,1-4.2,7.22,7.22,0,0,0-1-4.23A3.24,3.24,0,0,0,31.54,67a3.24,3.24,0,0,0-2.75,1.26,7.15,7.15,0,0,0-1,4.23Zm-2.31-.07a5.88,5.88,0,0,1,1.74-4.33,6.14,6.14,0,0,1,8.56,0,5.86,5.86,0,0,1,1.74,4.32,5.78,5.78,0,0,1-1.76,4.47,6.06,6.06,0,0,1-4.26,1.63,6,6,0,0,1-4.26-1.66,5.81,5.81,0,0,1-1.76-4.44Z"/>
    <path class="cls-3" d="M42,72.49q0,3,1,4.2a3.73,3.73,0,0,0,5.48,0q1-1.2,1-4.2a7.24,7.24,0,0,0-.95-4.23,3.65,3.65,0,0,0-5.51,0,7.14,7.14,0,0,0-1,4.23Zm-2.32-.07a5.89,5.89,0,0,1,1.74-4.33,6.14,6.14,0,0,1,8.57,0,5.87,5.87,0,0,1,1.74,4.32,5.78,5.78,0,0,1-1.77,4.47,6,6,0,0,1-4.26,1.63,6,6,0,0,1-4.26-1.66,5.81,5.81,0,0,1-1.76-4.44Z"/>
    <path class="cls-3" d="M63.39,68.84a7.3,7.3,0,0,0-1.82-1.18,4.51,4.51,0,0,0-1.83-.39,3.3,3.3,0,0,0-2.59,1.19,5.9,5.9,0,0,0-1,3.9,6.35,6.35,0,0,0,1.07,4.05,3.27,3.27,0,0,0,2.63,1.3,3.89,3.89,0,0,0,1.94-.5,5.39,5.39,0,0,0,1.65-1.51V68.84Zm0-.81V63.58c0-1.21,0-2,0-2.29a1,1,0,0,0-.4-.73,2.28,2.28,0,0,0-1.23-.24h-.29v-.6a15.29,15.29,0,0,0,3.65-.6h.29V74.34a22.7,22.7,0,0,0,.07,2.4.84.84,0,0,0,.44.63,3.11,3.11,0,0,0,1.38.2v.6a21,21,0,0,0-3.56.34,9.07,9.07,0,0,1-.17-2.05A7.62,7.62,0,0,1,61.41,78a5.17,5.17,0,0,1-2.24.52,4.94,4.94,0,0,1-3.79-1.76,6.7,6.7,0,0,1,0-8.71,5.2,5.2,0,0,1,3.88-1.7,5.62,5.62,0,0,1,2.16.42A6.36,6.36,0,0,1,63.39,68Z"/>
    <path class="cls-3" d="M87,78.53h-.66L80.71,63.11l-5,15.42H75L70.47,64c-.41-1.33-.7-2.21-.88-2.64a2.13,2.13,0,0,0-.7-1A2.75,2.75,0,0,0,67.45,60v-.65h7.07V60a3.3,3.3,0,0,0-1.63.36.92.92,0,0,0-.36.79,11.75,11.75,0,0,0,.58,2.33l3.36,10.89,4.88-15h.82l5.48,15,2.85-9.92a12.83,12.83,0,0,0,.57-2.63c0-1.22-.65-1.82-1.94-1.82v-.65h5.1V60a2.15,2.15,0,0,0-1.69.83,14.06,14.06,0,0,0-1.4,3.6L87,78.53Z"/>
    <path class="cls-3" d="M97.78,66.36v7.89q0,1.81.05,2.29a1,1,0,0,0,.4.71,2.21,2.21,0,0,0,1.23.25h.28v.59H93.67V77.5h.47a2,2,0,0,0,1.28-.28,1.12,1.12,0,0,0,.35-.68c0-.27.05-1,.05-2.3V70.8a8.59,8.59,0,0,0-.19-2.44.89.89,0,0,0-.5-.56A3.54,3.54,0,0,0,94,67.69h-.38v-.6a17.22,17.22,0,0,0,3.81-.73Z"/>
    <path class="cls-3" d="M95.12,63a1.41,1.41,0,0,1,.42-1,1.39,1.39,0,0,1,1-.43,1.35,1.35,0,0,1,1,.43A1.41,1.41,0,0,1,98,63a1.43,1.43,0,0,1-.42,1,1.37,1.37,0,0,1-1,.43,1.41,1.41,0,0,1-1-.43,1.43,1.43,0,0,1-.42-1Z"/>
    <path class="cls-3" d="M111.16,75.32h.6q-.94,3.21-4.7,3.21A5.54,5.54,0,0,1,103,76.89a5.81,5.81,0,0,1-1.65-4.34,5.94,5.94,0,0,1,1.78-4.47A6,6,0,0,1,110,67c.81.42,1.22.94,1.22,1.55a1.06,1.06,0,0,1-.22.64.76.76,0,0,1-.65.3c-.6,0-1-.35-1.1-1.06a2.05,2.05,0,0,0-.51-1.11,2.21,2.21,0,0,0-1.39-.31,3.22,3.22,0,0,0-2.78,1.28,6.58,6.58,0,0,0-.94,3.88,7.44,7.44,0,0,0,1,4.17,3.38,3.38,0,0,0,3,1.51,3.28,3.28,0,0,0,3.48-2.52Z"/>
    <path class="cls-3" d="M119.84,66.79h4.59v.6q-1.26,0-3.36,1.89-.67.59-2.09,1.71l4,4.75a7.39,7.39,0,0,0,1.44,1.41,2.26,2.26,0,0,0,1.08.36v.59h-5.66V77.5c.94,0,1.41-.22,1.41-.61,0-.18-.31-.62-.93-1.35l-2.87-3.39-.6.44v1.64c0,1.22,0,2,0,2.3a1,1,0,0,0,.39.72,2.06,2.06,0,0,0,1.2.26v.59h-5.7V77.5h.42a2,2,0,0,0,1.29-.28,1.07,1.07,0,0,0,.34-.68c0-.26,0-1,0-2.29V62.88a4.36,4.36,0,0,0-.31-2.1c-.21-.31-.7-.46-1.49-.46v-.6a11.66,11.66,0,0,0,1.94-.2,6.88,6.88,0,0,0,1.55-.4h.29V71.84L118,71c1.93-1.38,2.91-2.37,2.91-3,0-.41-.37-.63-1.1-.65v-.6Z"/>
    <path class="cls-3" d="M127.81,76.87H128c.19,0,.35-.06.35-.22s-.1-.23-.32-.23l-.19,0v.43Zm0,.85h-.35V76.21a4.14,4.14,0,0,1,.58,0,.82.82,0,0,1,.52.12.38.38,0,0,1,.16.33.39.39,0,0,1-.31.36v0c.15.05.22.17.27.37a1.34,1.34,0,0,0,.11.37h-.37a1.21,1.21,0,0,1-.12-.37c0-.16-.12-.23-.31-.23h-.17v.6Zm-.93-.79a1.18,1.18,0,0,0,1.18,1.21,1.16,1.16,0,0,0,1.15-1.2,1.17,1.17,0,1,0-2.34,0Zm2.73,0a1.56,1.56,0,1,1-1.54-1.52,1.53,1.53,0,0,1,1.54,1.52Z"/>
    <path class="cls-3" d="M23.6,89.28a2.51,2.51,0,0,1-2.07,1.64,1.39,1.39,0,0,1-1.36-1.58c0-1.47,1.38-3.69,3-3.69.4,0,.9.21.9.68a.49.49,0,0,1-.45.5.42.42,0,0,1-.4-.42c0-.19.13-.27.13-.36s-.17-.14-.26-.14C21.89,85.91,21,89,21,89.81c0,.42.2.84.66.84.82,0,1.35-.85,1.68-1.52l.24.14Z"/>
    <path class="cls-3" d="M24,87.39c.21-.55.89-1.74,1.52-1.74s.79.63.78,1.1c0,.26-.07.52-.1.78l0,0c.25-.67.82-1.91,1.66-1.91a.61.61,0,0,1,.66.55.45.45,0,0,1-.46.44.36.36,0,0,1-.39-.38c0-.07,0-.25-.08-.25s-.65.64-.75.83a19.16,19.16,0,0,0-1.08,2.8l-.38,1.13h-.88l.61-2a11.17,11.17,0,0,0,.34-2.15c0-.11,0-.65-.19-.65s-.94,1.21-1,1.48L24,87.39Z"/>
    <path class="cls-3" d="M29.09,89.84c0,.36.17.81.58.81.84,0,1.42-1.12,1.74-1.8a6.72,6.72,0,0,0,.69-2.31.59.59,0,0,0-.56-.63c-1.19,0-2.45,3-2.45,3.93Zm3.44-4h.84l-.52,1.41a13.72,13.72,0,0,0-.78,3.05c0,.11,0,.29.16.29.4,0,1-1.26,1.15-1.61l.25.11c-.36.69-.73,1.86-1.64,1.86a.65.65,0,0,1-.71-.68,4.16,4.16,0,0,1,.11-.68l0,0a2.26,2.26,0,0,1-1.77,1.37,1.34,1.34,0,0,1-1.34-1.4c0-1.53,1.55-3.87,3.21-3.87a.93.93,0,0,1,.9.64l.18-.49Z"/>
    <path class="cls-3" d="M37.82,89.28a2.51,2.51,0,0,1-2.07,1.64,1.39,1.39,0,0,1-1.36-1.58c0-1.47,1.37-3.69,3-3.69.4,0,.9.21.9.68a.49.49,0,0,1-.45.5.42.42,0,0,1-.4-.42c0-.19.13-.27.13-.36s-.16-.14-.26-.14c-1.19,0-2.05,3.07-2.05,3.9,0,.42.2.84.66.84.82,0,1.35-.85,1.68-1.52l.24.14Z"/>
    <path class="cls-3" d="M42,86.37A.36.36,0,0,0,41.6,86c-.92,0-1.67,1.62-1.9,2.38.79-.32,2.29-1,2.29-2Zm-2.37,2.34-.59,2h-.89l1.8-6.82a2,2,0,0,0,.08-.44c0-.33-.76-.25-.9-.25l.08-.26,1.93-.12c-.13.48-.27,1-.4,1.46l-.64,2.54,0,0A2.41,2.41,0,0,1,42,85.65a.84.84,0,0,1,.89.72c0,.92-1.28,1.35-2,1.77.86.24,1,.73.92,1.53V90c0,.14-.09.55.16.55s.72-1,.9-1.27l.23.09c-.29.64-.58,1.53-1.42,1.53a.76.76,0,0,1-.76-.82c0-.4.06-.8.06-1.21s-.06-.51-.4-.59l-.94.43Z"/>
    <path class="cls-3" d="M45.36,87.36a15.11,15.11,0,0,0-.71,2.86c0,.14,0,.34.23.34.39,0,1.05-1.14,1.21-1.49l.28.13c-.35.65-.86,1.72-1.73,1.72a.83.83,0,0,1-.83-.94,9.46,9.46,0,0,1,.45-1.9l1.21-4a2.33,2.33,0,0,0,.12-.49c0-.43-.58-.35-.85-.38l.07-.26,2-.12-1.41,4.49Z"/>
    <path class="cls-3" d="M49.87,86.3a.35.35,0,0,0-.36-.39c-.87,0-1.58,1.94-1.76,2.66.84-.37,2.13-1.21,2.13-2.26ZM50,89.38a2.8,2.8,0,0,1-2.11,1.53,1.25,1.25,0,0,1-1.33-1.36c0-1.49,1.42-3.91,3.08-3.91a.8.8,0,0,1,.86.82c0,1.24-1.74,1.94-2.69,2.34l-.19.08a3.75,3.75,0,0,0-.2,1.09c0,.36.18.67.58.67.79,0,1.36-.85,1.79-1.42l.21.15Z"/>
    <path class="cls-3" d="M53.1,85.65c.44,0,1.15.19,1.15.75a.29.29,0,0,1-.3.31c-.6,0,0-.79-.84-.79a.76.76,0,0,0-.8.72c0,.83,1.35,1.55,1.37,2.73s-.85,1.55-1.81,1.55c-.58,0-1.44-.24-1.44-1,0-.22.07-.43.31-.43a.36.36,0,0,1,.36.36c0,.11,0,.21,0,.32,0,.35.45.46.73.46a.91.91,0,0,0,1-.89c0-.83-1.38-1.7-1.38-2.72a1.47,1.47,0,0,1,1.64-1.4Z"/>
    <path class="cls-3" d="M58.71,89.84c0,.36.17.81.58.81.84,0,1.42-1.12,1.74-1.8a6.64,6.64,0,0,0,.69-2.31.59.59,0,0,0-.56-.63c-1.19,0-2.45,3-2.45,3.93Zm3.44-4H63l-.52,1.41a13.75,13.75,0,0,0-.78,3.05c0,.11,0,.29.15.29.4,0,1-1.26,1.15-1.61l.25.11c-.36.69-.74,1.86-1.65,1.86a.64.64,0,0,1-.71-.68,4.14,4.14,0,0,1,.11-.68l0,0a2.25,2.25,0,0,1-1.76,1.37,1.34,1.34,0,0,1-1.34-1.4c0-1.53,1.55-3.87,3.21-3.87a.93.93,0,0,1,.9.64l.18-.49Z"/>
    <path class="cls-3" d="M66.14,85.65c.44,0,1.15.19,1.15.75a.29.29,0,0,1-.3.31c-.6,0,0-.79-.84-.79a.76.76,0,0,0-.8.72c0,.83,1.35,1.55,1.38,2.73s-.85,1.55-1.81,1.55c-.58,0-1.43-.24-1.43-1,0-.22.07-.43.31-.43a.35.35,0,0,1,.36.36c0,.11,0,.21,0,.32,0,.35.45.46.74.46a.91.91,0,0,0,1-.89c0-.83-1.38-1.7-1.38-2.72a1.47,1.47,0,0,1,1.64-1.4Z"/>
    <path class="cls-3" d="M72.56,83.54a.54.54,0,1,1,.53.52.53.53,0,0,1-.53-.52Zm-.65,4.12a7.31,7.31,0,0,0,.44-1.43.22.22,0,0,0-.21-.23c-.37,0-.95,1-1.11,1.29l-.24-.13c.34-.58.83-1.52,1.59-1.52a.76.76,0,0,1,.73.8,5.64,5.64,0,0,1-.56,1.82l-.38,1a6.62,6.62,0,0,0-.35,1.12.19.19,0,0,0,.18.2c.45,0,1.09-1.06,1.27-1.42l.23.12c-.3.62-.91,1.66-1.68,1.66a.78.78,0,0,1-.77-.86,4.92,4.92,0,0,1,.52-1.6l.33-.79Z"/>
    <path class="cls-3" d="M76.91,84.15,76.4,85.8h.92l-.08.26h-.93l-.09.31a39.19,39.19,0,0,0-1,3.86c0,.17,0,.32.2.32.49,0,1-1.18,1.21-1.55l.24.13c-.34.67-.78,1.78-1.71,1.78a.77.77,0,0,1-.79-.8,7.22,7.22,0,0,1,.38-1.72l.67-2.34h-.94l.1-.26h.94l.55-1.65Z"/>
    <path class="cls-3" d="M84.39,86.7c0-.33-.18-.79-.56-.79-1.17,0-2.29,3.11-2.29,4.09a.58.58,0,0,0,.57.65c1.26,0,2.28-2.9,2.28-3.95ZM82.94,85l-.55,1.74,0,0A2,2,0,0,1,84,85.65a1.33,1.33,0,0,1,1.26,1.47c0,1.56-1.52,3.79-3.2,3.79a1.17,1.17,0,0,1-1.27-1.23,7.77,7.77,0,0,1,.42-1.76l1.16-3.74a3.63,3.63,0,0,0,.14-.6c0-.36-.5-.34-.74-.34l.07-.26,1.85-.12L82.94,85Z"/>
    <path class="cls-3" d="M87.15,89.47a2.8,2.8,0,0,0-.17.7.38.38,0,0,0,.43.39c.77,0,1.53-1.37,1.8-2l1-2.86H91L90.6,87.2a12.84,12.84,0,0,0-.67,3c0,.12,0,.34.2.34.39,0,1-1.14,1.07-1.49l.27.09c-.24.65-.74,1.76-1.54,1.76a.76.76,0,0,1-.8-.9c0-.24,0-.49.06-.72l0,0c-.43.7-1,1.65-2,1.65a1,1,0,0,1-1-1,3.59,3.59,0,0,1,.22-1.11l.21-.69a9.12,9.12,0,0,0,.43-1.61c0-.12.08-.51-.13-.51-.44,0-1.12,1.23-1.29,1.58l-.25-.12c.34-.69.93-1.82,1.8-1.82a.81.81,0,0,1,.72.88,5.13,5.13,0,0,1-.28,1.37l-.5,1.57Z"/>
    <path class="cls-3" d="M92,87.39c.21-.55.89-1.74,1.52-1.74s.79.63.78,1.1c0,.26-.07.52-.1.78l0,0c.25-.67.82-1.91,1.66-1.91a.61.61,0,0,1,.67.55.46.46,0,0,1-.46.44.36.36,0,0,1-.39-.38c0-.07,0-.25-.08-.25s-.65.64-.75.83a20.06,20.06,0,0,0-1.08,2.8l-.38,1.13H92.5l.6-2a11.12,11.12,0,0,0,.35-2.15c0-.11,0-.65-.19-.65s-.93,1.21-1,1.48L92,87.39Z"/>
    <path class="cls-3" d="M97.92,90.76H97l.26-.75a17.71,17.71,0,0,0,.91-3.63c0-.13,0-.38-.23-.38-.47,0-1,1.22-1.17,1.57l-.23-.08c.31-.69.74-1.85,1.67-1.85a.72.72,0,0,1,.72.82,7.44,7.44,0,0,1-.09.88l0,.22,0,0c.4-.78,1.09-1.93,2.11-1.93a.93.93,0,0,1,.92,1,5.6,5.6,0,0,1-.4,1.74l-.21.57a7.88,7.88,0,0,0-.41,1.28c0,.13.09.36.25.36.47,0,1-1.12,1.21-1.49l.25.12c-.31.65-.88,1.73-1.7,1.73a.77.77,0,0,1-.78-.84,6.48,6.48,0,0,1,.44-1.67l.21-.58a4.9,4.9,0,0,0,.43-1.41.4.4,0,0,0-.4-.4c-.64,0-1.33,1-1.6,1.53A14.69,14.69,0,0,0,98,90.39l-.11.37Z"/>
    <path class="cls-3" d="M105.57,85.65c.44,0,1.15.19,1.15.75a.28.28,0,0,1-.29.31c-.6,0,0-.79-.84-.79a.76.76,0,0,0-.8.72c0,.83,1.35,1.55,1.38,2.73s-.85,1.55-1.81,1.55c-.58,0-1.44-.24-1.44-1,0-.22.07-.43.31-.43a.36.36,0,0,1,.36.36c0,.11,0,.21,0,.32,0,.35.45.46.74.46a.91.91,0,0,0,1-.89c0-.83-1.38-1.7-1.38-2.72a1.47,1.47,0,0,1,1.64-1.4Z"/>
    <polygon class="cls-3" points="17.79 88.22 4.9 88.22 4.9 87.71 17.79 87.71 17.79 88.22 17.79 88.22 17.79 88.22"/>
    <polygon class="cls-3" points="125.75 88.22 112.85 88.22 112.85 87.71 125.75 87.71 125.75 88.22 125.75 88.22 125.75 88.22"/>
  </g>
</svg>
