<svg height="512pt" viewBox="0 -32 512.001 512" width="512pt" xmlns="http://www.w3.org/2000/svg"><path d="m10.40625 28.097656h177.804688l42.8125 113.433594-216.894532 83.042969c-6.816406 2.609375-14.128906-2.421875-14.128906-9.71875v-176.351563c0-5.746094 4.660156-10.40625 10.40625-10.40625zm0 0" fill="#e5646e"/><path d="m364.636719 230.742188h-21.632813c-10.425781 0-17.476562 10.628906-13.425781 20.234374l17.832031 42.253907c3.253906 7.710937 10.808594 12.722656 19.175782 12.722656h27.820312zm0 0" fill="#ddf5ff"/><path d="m356.609375 287.363281c-5.253906 0-10.183594-1.980469-13.933594-5.355469l4.738281 11.222657c3.253907 7.710937 10.808594 12.722656 19.175782 12.722656h27.816406l-7.359375-18.589844zm0 0" fill="#c1e9f4"/><path d="m426.667969 163.4375 81.640625 210.027344c2.441406 6.273437 3.691406 12.949218 3.691406 19.683594 0 30.007812-24.324219 54.332031-54.332031 54.332031h-61.304688c-9.703125 0-17.566406-7.863281-17.566406-17.566407v-39.792968c0-9.703125 7.863281-17.566406 17.566406-17.566406 12.480469 0 20.980469-12.648438 16.265625-24.203126l-75.457031-184.910156h89.496094zm0 0" fill="#747474"/><path d="m508.308594 373.464844-81.644532-210.027344h-27.054687l81.644531 210.027344c2.4375 6.273437 3.691406 12.949218 3.691406 19.683594 0 30.007812-24.328124 54.332031-54.332031 54.332031h27.054688c30.007812 0 54.332031-24.324219 54.332031-54.332031 0-6.734376-1.253906-13.410157-3.691406-19.683594zm0 0" fill="#5e5e5d"/><path d="m182.871094 14.121094 54.488281 142.625c1.539063 4.03125 5.40625 6.695312 9.71875 6.695312h183.203125c45.132812 0 81.71875-36.589844 81.71875-81.722656 0-45.128906-36.585938-81.71875-81.71875-81.71875h-237.6875c-7.296875 0-12.328125 7.308594-9.722656 14.121094zm0 0" fill="#747474"/><path d="m182.871094 14.121094 54.488281 142.625c1.539063 4.03125 5.40625 6.695312 9.71875 6.695312h183.203125c45.132812 0 81.71875-36.589844 81.71875-81.722656 0-45.128906-36.585938-81.71875-81.71875-81.71875h-237.6875c-7.296875 0-12.328125 7.308594-9.722656 14.121094zm0 0" fill="#747474"/><path d="m430.28125 141.585938h-198.714844l5.789063 15.160156c1.542969 4.03125 5.410156 6.691406 9.722656 6.691406h183.203125c45.132812 0 81.71875-36.585938 81.71875-81.71875 0-3.707031-.269531-7.347656-.75-10.925781-5.34375 39.960937-39.542969 70.792969-80.96875 70.792969zm0 0" fill="#5e5e5d"/><path d="m182.871094 14.121094 54.488281 142.625c1.539063 4.03125 5.40625 6.695312 9.71875 6.695312h44.585937l-62.4375-163.441406h-36.636718c-7.292969 0-12.324219 7.308594-9.71875 14.121094zm0 0" fill="#ddf5ff"/><path d="m231.566406 141.585938 5.789063 15.160156c1.542969 4.03125 5.410156 6.691406 9.722656 6.691406h44.585937l-8.347656-21.851562zm0 0" fill="#c1e9f4"/><g fill="#495959"><path d="m46.828125 132.683594c-4.308594 0-7.804687-3.492188-7.804687-7.804688v-58.277344c0-4.308593 3.496093-7.804687 7.804687-7.804687 4.3125 0 7.804687 3.496094 7.804687 7.804687v58.277344c0 4.3125-3.492187 7.804688-7.804687 7.804688zm0 0"/><path d="m68.683594 111.871094c-4.3125 0-7.804688-3.496094-7.804688-7.804688v-37.464844c0-4.308593 3.492188-7.804687 7.804688-7.804687 4.308594 0 7.804687 3.496094 7.804687 7.804687v37.464844c0 4.308594-3.496093 7.804688-7.804687 7.804688zm0 0"/><path d="m90.535156 122.277344c-4.308594 0-7.804687-3.492188-7.804687-7.804688v-47.871094c0-4.308593 3.496093-7.804687 7.804687-7.804687 4.3125 0 7.808594 3.496094 7.808594 7.804687v47.871094c-.003906 4.3125-3.496094 7.804688-7.808594 7.804688zm0 0"/><path d="m134.242188 132.683594c-4.308594 0-7.804688-3.492188-7.804688-7.804688v-58.277344c0-4.308593 3.496094-7.804687 7.804688-7.804687 4.3125 0 7.808593 3.496094 7.808593 7.804687v58.277344c0 4.3125-3.496093 7.804688-7.808593 7.804688zm0 0"/><path d="m112.390625 111.871094c-4.3125 0-7.804687-3.496094-7.804687-7.804688v-37.464844c0-4.308593 3.492187-7.804687 7.804687-7.804687 4.308594 0 7.804687 3.496094 7.804687 7.804687v37.464844c0 4.308594-3.496093 7.804688-7.804687 7.804688zm0 0"/><path d="m134.242188 155.578125h-87.414063c-4.308594 0-7.804687-3.496094-7.804687-7.804687 0-4.3125 3.496093-7.804688 7.804687-7.804688h87.414063c4.3125 0 7.808593 3.492188 7.808593 7.804688 0 4.308593-3.496093 7.804687-7.808593 7.804687zm0 0"/></g></svg>